<mxfile host="65bd71144e">
    <diagram id="1_umRqgCWuOfFAgZmLR7" name="Cloud diagram">
        <mxGraphModel dx="1046" dy="687" grid="1" gridSize="10" guides="1" tooltips="1" connect="1" arrows="1" fold="1" page="1" pageScale="1" pageWidth="827" pageHeight="1169" math="0" shadow="0">
            <root>
                <mxCell id="0"/>
                <mxCell id="1" parent="0"/>
                <mxCell id="2" value="" style="shape=actor;whiteSpace=wrap;html=1;" parent="1" vertex="1">
                    <mxGeometry x="330" y="240" width="134" height="150" as="geometry"/>
                </mxCell>
                <mxCell id="3" value="Famazon/Platform" style="ellipse;shape=cloud;whiteSpace=wrap;html=1;" parent="1" vertex="1">
                    <mxGeometry x="210" y="100" width="120" height="80" as="geometry"/>
                </mxCell>
                <mxCell id="6" value="Product" style="ellipse;shape=cloud;whiteSpace=wrap;html=1;" parent="1" vertex="1">
                    <mxGeometry x="350" y="80" width="120" height="80" as="geometry"/>
                </mxCell>
                <mxCell id="7" value="Company" style="ellipse;shape=cloud;whiteSpace=wrap;html=1;" parent="1" vertex="1">
                    <mxGeometry x="490" y="110" width="120" height="80" as="geometry"/>
                </mxCell>
                <mxCell id="8" value="ShippingCompany" style="ellipse;shape=cloud;whiteSpace=wrap;html=1;" parent="1" vertex="1">
                    <mxGeometry x="560" y="220" width="120" height="80" as="geometry"/>
                </mxCell>
                <mxCell id="9" value="Customer" style="ellipse;shape=cloud;whiteSpace=wrap;html=1;" parent="1" vertex="1">
                    <mxGeometry x="130" y="200" width="120" height="80" as="geometry"/>
                </mxCell>
            </root>
        </mxGraphModel>
    </diagram>
    <diagram id="BpObKBrn5clTjRcUkYWq" name="ER diagram">
        <mxGraphModel dx="1928" dy="723" grid="1" gridSize="10" guides="1" tooltips="1" connect="1" arrows="1" fold="1" page="1" pageScale="1" pageWidth="827" pageHeight="1169" math="0" shadow="0">
            <root>
                <mxCell id="HZr8x18l5bIwPJK6Bn-F-0"/>
                <mxCell id="HZr8x18l5bIwPJK6Bn-F-1" parent="HZr8x18l5bIwPJK6Bn-F-0"/>
                <mxCell id="HZr8x18l5bIwPJK6Bn-F-2" value="" style="edgeStyle=none;html=1;endArrow=none;endFill=0;" parent="HZr8x18l5bIwPJK6Bn-F-1" source="HZr8x18l5bIwPJK6Bn-F-8" target="HZr8x18l5bIwPJK6Bn-F-9" edge="1">
                    <mxGeometry relative="1" as="geometry"/>
                </mxCell>
                <mxCell id="HZr8x18l5bIwPJK6Bn-F-3" value="" style="edgeStyle=none;html=1;endArrow=none;endFill=0;" parent="HZr8x18l5bIwPJK6Bn-F-1" source="HZr8x18l5bIwPJK6Bn-F-8" target="HZr8x18l5bIwPJK6Bn-F-10" edge="1">
                    <mxGeometry relative="1" as="geometry"/>
                </mxCell>
                <mxCell id="HZr8x18l5bIwPJK6Bn-F-4" value="" style="edgeStyle=none;html=1;endArrow=none;endFill=0;" parent="HZr8x18l5bIwPJK6Bn-F-1" source="HZr8x18l5bIwPJK6Bn-F-8" target="HZr8x18l5bIwPJK6Bn-F-11" edge="1">
                    <mxGeometry relative="1" as="geometry"/>
                </mxCell>
                <mxCell id="HZr8x18l5bIwPJK6Bn-F-5" value="" style="edgeStyle=none;html=1;endArrow=none;endFill=0;startArrow=ERmany;startFill=0;" parent="HZr8x18l5bIwPJK6Bn-F-1" source="HZr8x18l5bIwPJK6Bn-F-8" edge="1">
                    <mxGeometry relative="1" as="geometry">
                        <mxPoint x="290" y="280" as="targetPoint"/>
                    </mxGeometry>
                </mxCell>
                <mxCell id="HZr8x18l5bIwPJK6Bn-F-6" style="edgeStyle=none;html=1;endArrow=none;endFill=0;" parent="HZr8x18l5bIwPJK6Bn-F-1" source="HZr8x18l5bIwPJK6Bn-F-8" target="HZr8x18l5bIwPJK6Bn-F-35" edge="1">
                    <mxGeometry relative="1" as="geometry"/>
                </mxCell>
                <mxCell id="HZr8x18l5bIwPJK6Bn-F-8" value="Customer" style="rounded=0;whiteSpace=wrap;html=1;" parent="HZr8x18l5bIwPJK6Bn-F-1" vertex="1">
                    <mxGeometry x="70" y="250" width="120" height="60" as="geometry"/>
                </mxCell>
                <mxCell id="HZr8x18l5bIwPJK6Bn-F-9" value="fName" style="ellipse;whiteSpace=wrap;html=1;rounded=0;" parent="HZr8x18l5bIwPJK6Bn-F-1" vertex="1">
                    <mxGeometry x="70" y="110" width="120" height="60" as="geometry"/>
                </mxCell>
                <mxCell id="HZr8x18l5bIwPJK6Bn-F-10" value="lName" style="ellipse;whiteSpace=wrap;html=1;rounded=0;" parent="HZr8x18l5bIwPJK6Bn-F-1" vertex="1">
                    <mxGeometry x="-70" y="120" width="120" height="60" as="geometry"/>
                </mxCell>
                <mxCell id="HZr8x18l5bIwPJK6Bn-F-11" value="fk_shippingId" style="ellipse;whiteSpace=wrap;html=1;rounded=0;" parent="HZr8x18l5bIwPJK6Bn-F-1" vertex="1">
                    <mxGeometry x="180" y="350" width="120" height="60" as="geometry"/>
                </mxCell>
                <mxCell id="HZr8x18l5bIwPJK6Bn-F-12" value="" style="edgeStyle=none;html=1;endArrow=classic;endFill=1;" parent="HZr8x18l5bIwPJK6Bn-F-1" source="HZr8x18l5bIwPJK6Bn-F-13" target="HZr8x18l5bIwPJK6Bn-F-17" edge="1">
                    <mxGeometry relative="1" as="geometry"/>
                </mxCell>
                <mxCell id="HZr8x18l5bIwPJK6Bn-F-13" value="visits" style="html=1;whiteSpace=wrap;aspect=fixed;shape=isoRectangle;" parent="HZr8x18l5bIwPJK6Bn-F-1" vertex="1">
                    <mxGeometry x="220" y="235" width="150" height="90" as="geometry"/>
                </mxCell>
                <mxCell id="HZr8x18l5bIwPJK6Bn-F-14" value="" style="edgeStyle=none;html=1;endArrow=none;endFill=0;" parent="HZr8x18l5bIwPJK6Bn-F-1" source="HZr8x18l5bIwPJK6Bn-F-17" target="HZr8x18l5bIwPJK6Bn-F-33" edge="1">
                    <mxGeometry relative="1" as="geometry"/>
                </mxCell>
                <mxCell id="HZr8x18l5bIwPJK6Bn-F-15" value="" style="edgeStyle=none;html=1;endArrow=none;endFill=0;" parent="HZr8x18l5bIwPJK6Bn-F-1" source="HZr8x18l5bIwPJK6Bn-F-17" target="HZr8x18l5bIwPJK6Bn-F-34" edge="1">
                    <mxGeometry relative="1" as="geometry"/>
                </mxCell>
                <mxCell id="HZr8x18l5bIwPJK6Bn-F-16" value="" style="edgeStyle=none;html=1;startArrow=none;startFill=0;endArrow=none;endFill=0;" parent="HZr8x18l5bIwPJK6Bn-F-1" source="HZr8x18l5bIwPJK6Bn-F-17" target="HZr8x18l5bIwPJK6Bn-F-61" edge="1">
                    <mxGeometry relative="1" as="geometry"/>
                </mxCell>
                <mxCell id="HZr8x18l5bIwPJK6Bn-F-17" value="Famazon" style="whiteSpace=wrap;html=1;" parent="HZr8x18l5bIwPJK6Bn-F-1" vertex="1">
                    <mxGeometry x="410" y="250" width="120" height="60" as="geometry"/>
                </mxCell>
                <mxCell id="HZr8x18l5bIwPJK6Bn-F-18" value="" style="edgeStyle=none;html=1;endArrow=classic;endFill=1;startArrow=none;startFill=0;" parent="HZr8x18l5bIwPJK6Bn-F-1" source="HZr8x18l5bIwPJK6Bn-F-20" target="HZr8x18l5bIwPJK6Bn-F-17" edge="1">
                    <mxGeometry relative="1" as="geometry"/>
                </mxCell>
                <mxCell id="HZr8x18l5bIwPJK6Bn-F-19" value="" style="edgeStyle=none;html=1;endArrow=ERoneToMany;endFill=0;" parent="HZr8x18l5bIwPJK6Bn-F-1" source="HZr8x18l5bIwPJK6Bn-F-20" target="HZr8x18l5bIwPJK6Bn-F-24" edge="1">
                    <mxGeometry relative="1" as="geometry"/>
                </mxCell>
                <mxCell id="HZr8x18l5bIwPJK6Bn-F-20" value="purchase" style="html=1;whiteSpace=wrap;aspect=fixed;shape=isoRectangle;" parent="HZr8x18l5bIwPJK6Bn-F-1" vertex="1">
                    <mxGeometry x="600" y="235" width="150" height="90" as="geometry"/>
                </mxCell>
                <mxCell id="HZr8x18l5bIwPJK6Bn-F-21" value="" style="edgeStyle=none;html=1;endArrow=none;endFill=0;" parent="HZr8x18l5bIwPJK6Bn-F-1" source="HZr8x18l5bIwPJK6Bn-F-24" target="HZr8x18l5bIwPJK6Bn-F-36" edge="1">
                    <mxGeometry relative="1" as="geometry"/>
                </mxCell>
                <mxCell id="HZr8x18l5bIwPJK6Bn-F-22" value="" style="edgeStyle=none;html=1;endArrow=none;endFill=0;" parent="HZr8x18l5bIwPJK6Bn-F-1" source="HZr8x18l5bIwPJK6Bn-F-24" target="HZr8x18l5bIwPJK6Bn-F-37" edge="1">
                    <mxGeometry relative="1" as="geometry"/>
                </mxCell>
                <mxCell id="HZr8x18l5bIwPJK6Bn-F-23" value="" style="edgeStyle=none;html=1;endArrow=none;endFill=0;" parent="HZr8x18l5bIwPJK6Bn-F-1" source="HZr8x18l5bIwPJK6Bn-F-24" target="HZr8x18l5bIwPJK6Bn-F-38" edge="1">
                    <mxGeometry relative="1" as="geometry"/>
                </mxCell>
                <mxCell id="HZr8x18l5bIwPJK6Bn-F-24" value="products" style="whiteSpace=wrap;html=1;" parent="HZr8x18l5bIwPJK6Bn-F-1" vertex="1">
                    <mxGeometry x="825" y="250" width="120" height="60" as="geometry"/>
                </mxCell>
                <mxCell id="HZr8x18l5bIwPJK6Bn-F-25" value="" style="edgeStyle=none;html=1;endArrow=ERmany;endFill=0;" parent="HZr8x18l5bIwPJK6Bn-F-1" source="HZr8x18l5bIwPJK6Bn-F-26" target="HZr8x18l5bIwPJK6Bn-F-24" edge="1">
                    <mxGeometry relative="1" as="geometry"/>
                </mxCell>
                <mxCell id="HZr8x18l5bIwPJK6Bn-F-26" value="receives order" style="html=1;whiteSpace=wrap;aspect=fixed;shape=isoRectangle;" parent="HZr8x18l5bIwPJK6Bn-F-1" vertex="1">
                    <mxGeometry x="812" y="550" width="150" height="90" as="geometry"/>
                </mxCell>
                <mxCell id="HZr8x18l5bIwPJK6Bn-F-27" value="" style="edgeStyle=none;html=1;endArrow=none;endFill=0;" parent="HZr8x18l5bIwPJK6Bn-F-1" source="HZr8x18l5bIwPJK6Bn-F-32" target="HZr8x18l5bIwPJK6Bn-F-41" edge="1">
                    <mxGeometry relative="1" as="geometry"/>
                </mxCell>
                <mxCell id="HZr8x18l5bIwPJK6Bn-F-28" value="" style="edgeStyle=none;html=1;endArrow=none;endFill=0;" parent="HZr8x18l5bIwPJK6Bn-F-1" source="HZr8x18l5bIwPJK6Bn-F-32" target="HZr8x18l5bIwPJK6Bn-F-44" edge="1">
                    <mxGeometry relative="1" as="geometry"/>
                </mxCell>
                <mxCell id="HZr8x18l5bIwPJK6Bn-F-29" style="edgeStyle=none;html=1;entryX=0.496;entryY=0.975;entryDx=0;entryDy=0;entryPerimeter=0;endArrow=none;endFill=0;startArrow=classic;startFill=1;" parent="HZr8x18l5bIwPJK6Bn-F-1" source="HZr8x18l5bIwPJK6Bn-F-32" target="HZr8x18l5bIwPJK6Bn-F-26" edge="1">
                    <mxGeometry relative="1" as="geometry"/>
                </mxCell>
                <mxCell id="HZr8x18l5bIwPJK6Bn-F-30" value="" style="edgeStyle=none;html=1;startArrow=none;startFill=0;endArrow=none;endFill=0;" parent="HZr8x18l5bIwPJK6Bn-F-1" source="HZr8x18l5bIwPJK6Bn-F-32" target="HZr8x18l5bIwPJK6Bn-F-59" edge="1">
                    <mxGeometry relative="1" as="geometry"/>
                </mxCell>
                <mxCell id="HZr8x18l5bIwPJK6Bn-F-31" style="edgeStyle=none;html=1;entryX=1.004;entryY=0.508;entryDx=0;entryDy=0;entryPerimeter=0;startArrow=ERmany;startFill=0;endArrow=none;endFill=0;" parent="HZr8x18l5bIwPJK6Bn-F-1" source="HZr8x18l5bIwPJK6Bn-F-32" target="HZr8x18l5bIwPJK6Bn-F-60" edge="1">
                    <mxGeometry relative="1" as="geometry"/>
                </mxCell>
                <mxCell id="HZr8x18l5bIwPJK6Bn-F-32" value="company" style="whiteSpace=wrap;html=1;" parent="HZr8x18l5bIwPJK6Bn-F-1" vertex="1">
                    <mxGeometry x="827" y="845" width="120" height="60" as="geometry"/>
                </mxCell>
                <mxCell id="HZr8x18l5bIwPJK6Bn-F-33" value="famazonId" style="ellipse;whiteSpace=wrap;html=1;" parent="HZr8x18l5bIwPJK6Bn-F-1" vertex="1">
                    <mxGeometry x="410" y="370" width="120" height="60" as="geometry"/>
                </mxCell>
                <mxCell id="HZr8x18l5bIwPJK6Bn-F-34" value="fk_productId" style="ellipse;whiteSpace=wrap;html=1;" parent="HZr8x18l5bIwPJK6Bn-F-1" vertex="1">
                    <mxGeometry x="354" y="140" width="120" height="60" as="geometry"/>
                </mxCell>
                <mxCell id="HZr8x18l5bIwPJK6Bn-F-35" value="customerID" style="ellipse;whiteSpace=wrap;html=1;" parent="HZr8x18l5bIwPJK6Bn-F-1" vertex="1">
                    <mxGeometry x="210" y="110" width="120" height="70" as="geometry"/>
                </mxCell>
                <mxCell id="HZr8x18l5bIwPJK6Bn-F-36" value="productId" style="ellipse;whiteSpace=wrap;html=1;" parent="HZr8x18l5bIwPJK6Bn-F-1" vertex="1">
                    <mxGeometry x="735" y="340" width="120" height="60" as="geometry"/>
                </mxCell>
                <mxCell id="HZr8x18l5bIwPJK6Bn-F-37" value="productName" style="ellipse;whiteSpace=wrap;html=1;" parent="HZr8x18l5bIwPJK6Bn-F-1" vertex="1">
                    <mxGeometry x="910" y="340" width="120" height="60" as="geometry"/>
                </mxCell>
                <mxCell id="HZr8x18l5bIwPJK6Bn-F-38" value="brand" style="ellipse;whiteSpace=wrap;html=1;" parent="HZr8x18l5bIwPJK6Bn-F-1" vertex="1">
                    <mxGeometry x="810" y="160" width="120" height="60" as="geometry"/>
                </mxCell>
                <mxCell id="HZr8x18l5bIwPJK6Bn-F-39" style="edgeStyle=none;html=1;endArrow=none;endFill=0;entryX=1;entryY=0;entryDx=0;entryDy=0;" parent="HZr8x18l5bIwPJK6Bn-F-1" source="HZr8x18l5bIwPJK6Bn-F-40" target="HZr8x18l5bIwPJK6Bn-F-32" edge="1">
                    <mxGeometry relative="1" as="geometry">
                        <mxPoint x="950" y="810" as="targetPoint"/>
                    </mxGeometry>
                </mxCell>
                <mxCell id="HZr8x18l5bIwPJK6Bn-F-40" value="fk_productId" style="ellipse;whiteSpace=wrap;html=1;" parent="HZr8x18l5bIwPJK6Bn-F-1" vertex="1">
                    <mxGeometry x="990" y="710" width="120" height="60" as="geometry"/>
                </mxCell>
                <mxCell id="HZr8x18l5bIwPJK6Bn-F-41" value="companyName" style="ellipse;whiteSpace=wrap;html=1;" parent="HZr8x18l5bIwPJK6Bn-F-1" vertex="1">
                    <mxGeometry x="990" y="970" width="120" height="60" as="geometry"/>
                </mxCell>
                <mxCell id="HZr8x18l5bIwPJK6Bn-F-42" style="edgeStyle=none;html=1;endArrow=none;endFill=0;" parent="HZr8x18l5bIwPJK6Bn-F-1" source="HZr8x18l5bIwPJK6Bn-F-43" target="HZr8x18l5bIwPJK6Bn-F-32" edge="1">
                    <mxGeometry relative="1" as="geometry"/>
                </mxCell>
                <mxCell id="HZr8x18l5bIwPJK6Bn-F-43" value="companyId" style="ellipse;whiteSpace=wrap;html=1;" parent="HZr8x18l5bIwPJK6Bn-F-1" vertex="1">
                    <mxGeometry x="690" y="990" width="120" height="60" as="geometry"/>
                </mxCell>
                <mxCell id="HZr8x18l5bIwPJK6Bn-F-44" value="companyAdress" style="ellipse;whiteSpace=wrap;html=1;" parent="HZr8x18l5bIwPJK6Bn-F-1" vertex="1">
                    <mxGeometry x="830" y="1000" width="120" height="60" as="geometry"/>
                </mxCell>
                <mxCell id="HZr8x18l5bIwPJK6Bn-F-45" value="" style="edgeStyle=none;html=1;endArrow=none;endFill=0;" parent="HZr8x18l5bIwPJK6Bn-F-1" source="HZr8x18l5bIwPJK6Bn-F-49" target="HZr8x18l5bIwPJK6Bn-F-50" edge="1">
                    <mxGeometry relative="1" as="geometry"/>
                </mxCell>
                <mxCell id="HZr8x18l5bIwPJK6Bn-F-46" value="" style="edgeStyle=none;html=1;endArrow=none;endFill=0;" parent="HZr8x18l5bIwPJK6Bn-F-1" source="HZr8x18l5bIwPJK6Bn-F-49" target="HZr8x18l5bIwPJK6Bn-F-51" edge="1">
                    <mxGeometry relative="1" as="geometry"/>
                </mxCell>
                <mxCell id="HZr8x18l5bIwPJK6Bn-F-47" value="" style="edgeStyle=none;html=1;endArrow=none;endFill=0;" parent="HZr8x18l5bIwPJK6Bn-F-1" source="HZr8x18l5bIwPJK6Bn-F-49" target="HZr8x18l5bIwPJK6Bn-F-58" edge="1">
                    <mxGeometry relative="1" as="geometry"/>
                </mxCell>
                <mxCell id="HZr8x18l5bIwPJK6Bn-F-48" style="edgeStyle=none;html=1;entryX=0.013;entryY=0.508;entryDx=0;entryDy=0;entryPerimeter=0;startArrow=classic;startFill=1;endArrow=none;endFill=0;" parent="HZr8x18l5bIwPJK6Bn-F-1" source="HZr8x18l5bIwPJK6Bn-F-49" target="HZr8x18l5bIwPJK6Bn-F-60" edge="1">
                    <mxGeometry relative="1" as="geometry"/>
                </mxCell>
                <mxCell id="HZr8x18l5bIwPJK6Bn-F-49" value="ShippingCompany" style="rounded=0;whiteSpace=wrap;html=1;" parent="HZr8x18l5bIwPJK6Bn-F-1" vertex="1">
                    <mxGeometry x="340" y="840" width="120" height="60" as="geometry"/>
                </mxCell>
                <mxCell id="HZr8x18l5bIwPJK6Bn-F-50" value="shippingCompanyName" style="ellipse;whiteSpace=wrap;html=1;rounded=0;" parent="HZr8x18l5bIwPJK6Bn-F-1" vertex="1">
                    <mxGeometry x="210" y="710" width="145" height="60" as="geometry"/>
                </mxCell>
                <mxCell id="HZr8x18l5bIwPJK6Bn-F-51" value="shippingCompanyId" style="ellipse;whiteSpace=wrap;html=1;rounded=0;" parent="HZr8x18l5bIwPJK6Bn-F-1" vertex="1">
                    <mxGeometry x="450" y="720" width="120" height="60" as="geometry"/>
                </mxCell>
                <mxCell id="HZr8x18l5bIwPJK6Bn-F-52" style="edgeStyle=none;html=1;endArrow=classic;endFill=1;startArrow=none;startFill=0;" parent="HZr8x18l5bIwPJK6Bn-F-1" source="HZr8x18l5bIwPJK6Bn-F-57" target="HZr8x18l5bIwPJK6Bn-F-49" edge="1">
                    <mxGeometry relative="1" as="geometry"/>
                </mxCell>
                <mxCell id="HZr8x18l5bIwPJK6Bn-F-53" style="edgeStyle=none;html=1;entryX=0.5;entryY=1;entryDx=0;entryDy=0;endArrow=ERmany;endFill=0;startArrow=none;startFill=0;" parent="HZr8x18l5bIwPJK6Bn-F-1" source="HZr8x18l5bIwPJK6Bn-F-57" target="HZr8x18l5bIwPJK6Bn-F-8" edge="1">
                    <mxGeometry relative="1" as="geometry"/>
                </mxCell>
                <mxCell id="HZr8x18l5bIwPJK6Bn-F-54" style="edgeStyle=none;html=1;entryX=0.5;entryY=0;entryDx=0;entryDy=0;startArrow=none;startFill=0;endArrow=none;endFill=0;" parent="HZr8x18l5bIwPJK6Bn-F-1" source="HZr8x18l5bIwPJK6Bn-F-57" target="HZr8x18l5bIwPJK6Bn-F-80" edge="1">
                    <mxGeometry relative="1" as="geometry"/>
                </mxCell>
                <mxCell id="HZr8x18l5bIwPJK6Bn-F-55" value="" style="edgeStyle=none;html=1;startArrow=none;startFill=0;endArrow=none;endFill=0;exitX=0.198;exitY=0.736;exitDx=0;exitDy=0;exitPerimeter=0;" parent="HZr8x18l5bIwPJK6Bn-F-1" source="HZr8x18l5bIwPJK6Bn-F-57" target="HZr8x18l5bIwPJK6Bn-F-81" edge="1">
                    <mxGeometry relative="1" as="geometry"/>
                </mxCell>
                <mxCell id="HZr8x18l5bIwPJK6Bn-F-56" value="" style="edgeStyle=none;html=1;startArrow=none;startFill=0;endArrow=none;endFill=0;exitX=0.276;exitY=0.241;exitDx=0;exitDy=0;exitPerimeter=0;" parent="HZr8x18l5bIwPJK6Bn-F-1" source="HZr8x18l5bIwPJK6Bn-F-57" target="HZr8x18l5bIwPJK6Bn-F-82" edge="1">
                    <mxGeometry relative="1" as="geometry"/>
                </mxCell>
                <mxCell id="HZr8x18l5bIwPJK6Bn-F-57" value="shipping" style="html=1;whiteSpace=wrap;aspect=fixed;shape=isoRectangle;" parent="HZr8x18l5bIwPJK6Bn-F-1" vertex="1">
                    <mxGeometry x="55" y="825" width="150" height="90" as="geometry"/>
                </mxCell>
                <mxCell id="HZr8x18l5bIwPJK6Bn-F-58" value="fk_companyId" style="ellipse;whiteSpace=wrap;html=1;rounded=0;" parent="HZr8x18l5bIwPJK6Bn-F-1" vertex="1">
                    <mxGeometry x="340" y="970" width="120" height="60" as="geometry"/>
                </mxCell>
                <mxCell id="HZr8x18l5bIwPJK6Bn-F-59" value="orderId" style="ellipse;whiteSpace=wrap;html=1;" parent="HZr8x18l5bIwPJK6Bn-F-1" vertex="1">
                    <mxGeometry x="1020" y="840" width="120" height="60" as="geometry"/>
                </mxCell>
                <mxCell id="HZr8x18l5bIwPJK6Bn-F-60" value="passes order" style="html=1;whiteSpace=wrap;aspect=fixed;shape=isoRectangle;" parent="HZr8x18l5bIwPJK6Bn-F-1" vertex="1">
                    <mxGeometry x="570" y="830" width="150" height="90" as="geometry"/>
                </mxCell>
                <mxCell id="HZr8x18l5bIwPJK6Bn-F-61" value="fk_customerId" style="ellipse;whiteSpace=wrap;html=1;" parent="HZr8x18l5bIwPJK6Bn-F-1" vertex="1">
                    <mxGeometry x="480" y="140" width="120" height="60" as="geometry"/>
                </mxCell>
                <mxCell id="HZr8x18l5bIwPJK6Bn-F-62" style="edgeStyle=none;html=1;entryX=0;entryY=0.5;entryDx=0;entryDy=0;startArrow=none;startFill=0;endArrow=none;endFill=0;" parent="HZr8x18l5bIwPJK6Bn-F-1" source="HZr8x18l5bIwPJK6Bn-F-64" target="HZr8x18l5bIwPJK6Bn-F-8" edge="1">
                    <mxGeometry relative="1" as="geometry"/>
                </mxCell>
                <mxCell id="HZr8x18l5bIwPJK6Bn-F-63" value="" style="edgeStyle=none;html=1;startArrow=none;startFill=0;endArrow=none;endFill=0;" parent="HZr8x18l5bIwPJK6Bn-F-1" source="HZr8x18l5bIwPJK6Bn-F-64" target="HZr8x18l5bIwPJK6Bn-F-72" edge="1">
                    <mxGeometry relative="1" as="geometry"/>
                </mxCell>
                <mxCell id="HZr8x18l5bIwPJK6Bn-F-64" value="created by" style="html=1;whiteSpace=wrap;aspect=fixed;shape=isoRectangle;" parent="HZr8x18l5bIwPJK6Bn-F-1" vertex="1">
                    <mxGeometry x="-210" y="235" width="150" height="90" as="geometry"/>
                </mxCell>
                <mxCell id="HZr8x18l5bIwPJK6Bn-F-68" value="" style="edgeStyle=none;html=1;startArrow=none;startFill=0;endArrow=none;endFill=0;" parent="HZr8x18l5bIwPJK6Bn-F-1" source="HZr8x18l5bIwPJK6Bn-F-72" target="HZr8x18l5bIwPJK6Bn-F-76" edge="1">
                    <mxGeometry relative="1" as="geometry"/>
                </mxCell>
                <mxCell id="HZr8x18l5bIwPJK6Bn-F-69" value="" style="edgeStyle=none;html=1;startArrow=none;startFill=0;endArrow=none;endFill=0;" parent="HZr8x18l5bIwPJK6Bn-F-1" source="HZr8x18l5bIwPJK6Bn-F-72" target="HZr8x18l5bIwPJK6Bn-F-77" edge="1">
                    <mxGeometry relative="1" as="geometry"/>
                </mxCell>
                <mxCell id="HZr8x18l5bIwPJK6Bn-F-70" value="" style="edgeStyle=none;html=1;startArrow=none;startFill=0;endArrow=none;endFill=0;" parent="HZr8x18l5bIwPJK6Bn-F-1" source="HZr8x18l5bIwPJK6Bn-F-72" target="HZr8x18l5bIwPJK6Bn-F-78" edge="1">
                    <mxGeometry relative="1" as="geometry"/>
                </mxCell>
                <mxCell id="HZr8x18l5bIwPJK6Bn-F-71" value="" style="edgeStyle=none;html=1;startArrow=none;startFill=0;endArrow=none;endFill=0;" parent="HZr8x18l5bIwPJK6Bn-F-1" source="HZr8x18l5bIwPJK6Bn-F-72" target="HZr8x18l5bIwPJK6Bn-F-79" edge="1">
                    <mxGeometry relative="1" as="geometry"/>
                </mxCell>
                <mxCell id="HZr8x18l5bIwPJK6Bn-F-72" value="Account" style="whiteSpace=wrap;html=1;" parent="HZr8x18l5bIwPJK6Bn-F-1" vertex="1">
                    <mxGeometry x="-420" y="250" width="120" height="60" as="geometry"/>
                </mxCell>
                <mxCell id="HZr8x18l5bIwPJK6Bn-F-76" value="address" style="ellipse;whiteSpace=wrap;html=1;" parent="HZr8x18l5bIwPJK6Bn-F-1" vertex="1">
                    <mxGeometry x="-580" y="120" width="120" height="60" as="geometry"/>
                </mxCell>
                <mxCell id="HZr8x18l5bIwPJK6Bn-F-77" value="username" style="ellipse;whiteSpace=wrap;html=1;" parent="HZr8x18l5bIwPJK6Bn-F-1" vertex="1">
                    <mxGeometry x="-600" y="340" width="120" height="60" as="geometry"/>
                </mxCell>
                <mxCell id="HZr8x18l5bIwPJK6Bn-F-78" value="accountId" style="ellipse;whiteSpace=wrap;html=1;" parent="HZr8x18l5bIwPJK6Bn-F-1" vertex="1">
                    <mxGeometry x="-270" y="140" width="120" height="60" as="geometry"/>
                </mxCell>
                <mxCell id="HZr8x18l5bIwPJK6Bn-F-79" value="fk_customerId" style="ellipse;whiteSpace=wrap;html=1;" parent="HZr8x18l5bIwPJK6Bn-F-1" vertex="1">
                    <mxGeometry x="-270" y="370" width="120" height="60" as="geometry"/>
                </mxCell>
                <mxCell id="HZr8x18l5bIwPJK6Bn-F-80" value="shippingId" style="ellipse;whiteSpace=wrap;html=1;rounded=0;" parent="HZr8x18l5bIwPJK6Bn-F-1" vertex="1">
                    <mxGeometry x="70" y="980" width="120" height="60" as="geometry"/>
                </mxCell>
                <mxCell id="HZr8x18l5bIwPJK6Bn-F-81" value="fk_shippingCompanyId" style="ellipse;whiteSpace=wrap;html=1;" parent="HZr8x18l5bIwPJK6Bn-F-1" vertex="1">
                    <mxGeometry x="-120" y="880" width="120" height="60" as="geometry"/>
                </mxCell>
                <mxCell id="HZr8x18l5bIwPJK6Bn-F-82" value="deliveryTime" style="ellipse;whiteSpace=wrap;html=1;" parent="HZr8x18l5bIwPJK6Bn-F-1" vertex="1">
                    <mxGeometry x="-110" y="730" width="120" height="60" as="geometry"/>
                </mxCell>
            </root>
        </mxGraphModel>
    </diagram>
    <diagram id="vRQZjLMtLoKNH1ozpUhY" name="Cloud diagram">
        <mxGraphModel dx="1308" dy="859" grid="1" gridSize="10" guides="1" tooltips="1" connect="1" arrows="1" fold="1" page="1" pageScale="1" pageWidth="827" pageHeight="1169" math="0" shadow="0">
            <root>
                <mxCell id="v-dE-zxuSy2YSCr7j2yd-0"/>
                <mxCell id="v-dE-zxuSy2YSCr7j2yd-1" parent="v-dE-zxuSy2YSCr7j2yd-0"/>
                <mxCell id="v-dE-zxuSy2YSCr7j2yd-2" value="Account" style="shape=table;startSize=30;container=1;collapsible=1;childLayout=tableLayout;fixedRows=1;rowLines=0;fontStyle=1;align=center;resizeLast=1;" parent="v-dE-zxuSy2YSCr7j2yd-1" vertex="1">
                    <mxGeometry x="10" y="190" width="180" height="160" as="geometry"/>
                </mxCell>
                <mxCell id="v-dE-zxuSy2YSCr7j2yd-3" value="" style="shape=partialRectangle;collapsible=0;dropTarget=0;pointerEvents=0;fillColor=none;top=0;left=0;bottom=1;right=0;points=[[0,0.5],[1,0.5]];portConstraint=eastwest;" parent="v-dE-zxuSy2YSCr7j2yd-2" vertex="1">
                    <mxGeometry y="30" width="180" height="30" as="geometry"/>
                </mxCell>
                <mxCell id="v-dE-zxuSy2YSCr7j2yd-4" value="PK" style="shape=partialRectangle;connectable=0;fillColor=none;top=0;left=0;bottom=0;right=0;fontStyle=1;overflow=hidden;" parent="v-dE-zxuSy2YSCr7j2yd-3" vertex="1">
                    <mxGeometry width="30" height="30" as="geometry">
                        <mxRectangle width="30" height="30" as="alternateBounds"/>
                    </mxGeometry>
                </mxCell>
                <mxCell id="v-dE-zxuSy2YSCr7j2yd-5" value="accountId: int" style="shape=partialRectangle;connectable=0;fillColor=none;top=0;left=0;bottom=0;right=0;align=left;spacingLeft=6;fontStyle=5;overflow=hidden;" parent="v-dE-zxuSy2YSCr7j2yd-3" vertex="1">
                    <mxGeometry x="30" width="150" height="30" as="geometry">
                        <mxRectangle width="150" height="30" as="alternateBounds"/>
                    </mxGeometry>
                </mxCell>
                <mxCell id="v-dE-zxuSy2YSCr7j2yd-12" value="" style="shape=partialRectangle;collapsible=0;dropTarget=0;pointerEvents=0;fillColor=none;top=0;left=0;bottom=0;right=0;points=[[0,0.5],[1,0.5]];portConstraint=eastwest;" parent="v-dE-zxuSy2YSCr7j2yd-2" vertex="1">
                    <mxGeometry y="60" width="180" height="30" as="geometry"/>
                </mxCell>
                <mxCell id="v-dE-zxuSy2YSCr7j2yd-13" value="" style="shape=partialRectangle;connectable=0;fillColor=none;top=0;left=0;bottom=0;right=0;editable=1;overflow=hidden;" parent="v-dE-zxuSy2YSCr7j2yd-12" vertex="1">
                    <mxGeometry width="30" height="30" as="geometry">
                        <mxRectangle width="30" height="30" as="alternateBounds"/>
                    </mxGeometry>
                </mxCell>
                <mxCell id="v-dE-zxuSy2YSCr7j2yd-14" value="username: string" style="shape=partialRectangle;connectable=0;fillColor=none;top=0;left=0;bottom=0;right=0;align=left;spacingLeft=6;overflow=hidden;" parent="v-dE-zxuSy2YSCr7j2yd-12" vertex="1">
                    <mxGeometry x="30" width="150" height="30" as="geometry">
                        <mxRectangle width="150" height="30" as="alternateBounds"/>
                    </mxGeometry>
                </mxCell>
                <mxCell id="v-dE-zxuSy2YSCr7j2yd-15" value="" style="shape=partialRectangle;collapsible=0;dropTarget=0;pointerEvents=0;fillColor=none;top=0;left=0;bottom=0;right=0;points=[[0,0.5],[1,0.5]];portConstraint=eastwest;" parent="v-dE-zxuSy2YSCr7j2yd-2" vertex="1">
                    <mxGeometry y="90" width="180" height="30" as="geometry"/>
                </mxCell>
                <mxCell id="v-dE-zxuSy2YSCr7j2yd-16" value="" style="shape=partialRectangle;connectable=0;fillColor=none;top=0;left=0;bottom=0;right=0;editable=1;overflow=hidden;" parent="v-dE-zxuSy2YSCr7j2yd-15" vertex="1">
                    <mxGeometry width="30" height="30" as="geometry">
                        <mxRectangle width="30" height="30" as="alternateBounds"/>
                    </mxGeometry>
                </mxCell>
                <mxCell id="v-dE-zxuSy2YSCr7j2yd-17" value="address: string" style="shape=partialRectangle;connectable=0;fillColor=none;top=0;left=0;bottom=0;right=0;align=left;spacingLeft=6;overflow=hidden;" parent="v-dE-zxuSy2YSCr7j2yd-15" vertex="1">
                    <mxGeometry x="30" width="150" height="30" as="geometry">
                        <mxRectangle width="150" height="30" as="alternateBounds"/>
                    </mxGeometry>
                </mxCell>
                <mxCell id="v-dE-zxuSy2YSCr7j2yd-21" value="" style="shape=partialRectangle;collapsible=0;dropTarget=0;pointerEvents=0;fillColor=none;top=0;left=0;bottom=0;right=0;points=[[0,0.5],[1,0.5]];portConstraint=eastwest;" parent="v-dE-zxuSy2YSCr7j2yd-2" vertex="1">
                    <mxGeometry y="120" width="180" height="30" as="geometry"/>
                </mxCell>
                <mxCell id="v-dE-zxuSy2YSCr7j2yd-22" value="" style="shape=partialRectangle;connectable=0;fillColor=none;top=0;left=0;bottom=0;right=0;editable=1;overflow=hidden;" parent="v-dE-zxuSy2YSCr7j2yd-21" vertex="1">
                    <mxGeometry width="30" height="30" as="geometry">
                        <mxRectangle width="30" height="30" as="alternateBounds"/>
                    </mxGeometry>
                </mxCell>
                <mxCell id="v-dE-zxuSy2YSCr7j2yd-23" value="fk_customerId: int" style="shape=partialRectangle;connectable=0;fillColor=none;top=0;left=0;bottom=0;right=0;align=left;spacingLeft=6;overflow=hidden;" parent="v-dE-zxuSy2YSCr7j2yd-21" vertex="1">
                    <mxGeometry x="30" width="150" height="30" as="geometry">
                        <mxRectangle width="150" height="30" as="alternateBounds"/>
                    </mxGeometry>
                </mxCell>
                <mxCell id="v-dE-zxuSy2YSCr7j2yd-24" value="Customer" style="shape=table;startSize=30;container=1;collapsible=1;childLayout=tableLayout;fixedRows=1;rowLines=0;fontStyle=1;align=center;resizeLast=1;" parent="v-dE-zxuSy2YSCr7j2yd-1" vertex="1">
                    <mxGeometry x="270" y="190" width="180" height="160" as="geometry"/>
                </mxCell>
                <mxCell id="v-dE-zxuSy2YSCr7j2yd-25" value="" style="shape=partialRectangle;collapsible=0;dropTarget=0;pointerEvents=0;fillColor=none;top=0;left=0;bottom=1;right=0;points=[[0,0.5],[1,0.5]];portConstraint=eastwest;" parent="v-dE-zxuSy2YSCr7j2yd-24" vertex="1">
                    <mxGeometry y="30" width="180" height="30" as="geometry"/>
                </mxCell>
                <mxCell id="v-dE-zxuSy2YSCr7j2yd-26" value="PK" style="shape=partialRectangle;connectable=0;fillColor=none;top=0;left=0;bottom=0;right=0;fontStyle=1;overflow=hidden;" parent="v-dE-zxuSy2YSCr7j2yd-25" vertex="1">
                    <mxGeometry width="30" height="30" as="geometry">
                        <mxRectangle width="30" height="30" as="alternateBounds"/>
                    </mxGeometry>
                </mxCell>
                <mxCell id="v-dE-zxuSy2YSCr7j2yd-27" value="customerId: int" style="shape=partialRectangle;connectable=0;fillColor=none;top=0;left=0;bottom=0;right=0;align=left;spacingLeft=6;fontStyle=5;overflow=hidden;" parent="v-dE-zxuSy2YSCr7j2yd-25" vertex="1">
                    <mxGeometry x="30" width="150" height="30" as="geometry">
                        <mxRectangle width="150" height="30" as="alternateBounds"/>
                    </mxGeometry>
                </mxCell>
                <mxCell id="v-dE-zxuSy2YSCr7j2yd-28" value="" style="shape=partialRectangle;collapsible=0;dropTarget=0;pointerEvents=0;fillColor=none;top=0;left=0;bottom=0;right=0;points=[[0,0.5],[1,0.5]];portConstraint=eastwest;" parent="v-dE-zxuSy2YSCr7j2yd-24" vertex="1">
                    <mxGeometry y="60" width="180" height="30" as="geometry"/>
                </mxCell>
                <mxCell id="v-dE-zxuSy2YSCr7j2yd-29" value="" style="shape=partialRectangle;connectable=0;fillColor=none;top=0;left=0;bottom=0;right=0;editable=1;overflow=hidden;" parent="v-dE-zxuSy2YSCr7j2yd-28" vertex="1">
                    <mxGeometry width="30" height="30" as="geometry">
                        <mxRectangle width="30" height="30" as="alternateBounds"/>
                    </mxGeometry>
                </mxCell>
                <mxCell id="v-dE-zxuSy2YSCr7j2yd-30" value="fName: string" style="shape=partialRectangle;connectable=0;fillColor=none;top=0;left=0;bottom=0;right=0;align=left;spacingLeft=6;overflow=hidden;" parent="v-dE-zxuSy2YSCr7j2yd-28" vertex="1">
                    <mxGeometry x="30" width="150" height="30" as="geometry">
                        <mxRectangle width="150" height="30" as="alternateBounds"/>
                    </mxGeometry>
                </mxCell>
                <mxCell id="v-dE-zxuSy2YSCr7j2yd-31" value="" style="shape=partialRectangle;collapsible=0;dropTarget=0;pointerEvents=0;fillColor=none;top=0;left=0;bottom=0;right=0;points=[[0,0.5],[1,0.5]];portConstraint=eastwest;" parent="v-dE-zxuSy2YSCr7j2yd-24" vertex="1">
                    <mxGeometry y="90" width="180" height="30" as="geometry"/>
                </mxCell>
                <mxCell id="v-dE-zxuSy2YSCr7j2yd-32" value="" style="shape=partialRectangle;connectable=0;fillColor=none;top=0;left=0;bottom=0;right=0;editable=1;overflow=hidden;" parent="v-dE-zxuSy2YSCr7j2yd-31" vertex="1">
                    <mxGeometry width="30" height="30" as="geometry">
                        <mxRectangle width="30" height="30" as="alternateBounds"/>
                    </mxGeometry>
                </mxCell>
                <mxCell id="v-dE-zxuSy2YSCr7j2yd-33" value="lName: string" style="shape=partialRectangle;connectable=0;fillColor=none;top=0;left=0;bottom=0;right=0;align=left;spacingLeft=6;overflow=hidden;" parent="v-dE-zxuSy2YSCr7j2yd-31" vertex="1">
                    <mxGeometry x="30" width="150" height="30" as="geometry">
                        <mxRectangle width="150" height="30" as="alternateBounds"/>
                    </mxGeometry>
                </mxCell>
                <mxCell id="v-dE-zxuSy2YSCr7j2yd-37" value="" style="shape=partialRectangle;collapsible=0;dropTarget=0;pointerEvents=0;fillColor=none;top=0;left=0;bottom=0;right=0;points=[[0,0.5],[1,0.5]];portConstraint=eastwest;" parent="v-dE-zxuSy2YSCr7j2yd-24" vertex="1">
                    <mxGeometry y="120" width="180" height="30" as="geometry"/>
                </mxCell>
                <mxCell id="v-dE-zxuSy2YSCr7j2yd-38" value="" style="shape=partialRectangle;connectable=0;fillColor=none;top=0;left=0;bottom=0;right=0;editable=1;overflow=hidden;" parent="v-dE-zxuSy2YSCr7j2yd-37" vertex="1">
                    <mxGeometry width="30" height="30" as="geometry">
                        <mxRectangle width="30" height="30" as="alternateBounds"/>
                    </mxGeometry>
                </mxCell>
                <mxCell id="v-dE-zxuSy2YSCr7j2yd-39" value="fk_shippingId: Int" style="shape=partialRectangle;connectable=0;fillColor=none;top=0;left=0;bottom=0;right=0;align=left;spacingLeft=6;overflow=hidden;" parent="v-dE-zxuSy2YSCr7j2yd-37" vertex="1">
                    <mxGeometry x="30" width="150" height="30" as="geometry">
                        <mxRectangle width="150" height="30" as="alternateBounds"/>
                    </mxGeometry>
                </mxCell>
                <mxCell id="v-dE-zxuSy2YSCr7j2yd-40" value="Famazon" style="shape=table;startSize=30;container=1;collapsible=1;childLayout=tableLayout;fixedRows=1;rowLines=0;fontStyle=1;align=center;resizeLast=1;" parent="v-dE-zxuSy2YSCr7j2yd-1" vertex="1">
                    <mxGeometry x="530" y="190" width="180" height="130" as="geometry"/>
                </mxCell>
                <mxCell id="v-dE-zxuSy2YSCr7j2yd-41" value="" style="shape=partialRectangle;collapsible=0;dropTarget=0;pointerEvents=0;fillColor=none;top=0;left=0;bottom=1;right=0;points=[[0,0.5],[1,0.5]];portConstraint=eastwest;" parent="v-dE-zxuSy2YSCr7j2yd-40" vertex="1">
                    <mxGeometry y="30" width="180" height="30" as="geometry"/>
                </mxCell>
                <mxCell id="v-dE-zxuSy2YSCr7j2yd-42" value="PK" style="shape=partialRectangle;connectable=0;fillColor=none;top=0;left=0;bottom=0;right=0;fontStyle=1;overflow=hidden;" parent="v-dE-zxuSy2YSCr7j2yd-41" vertex="1">
                    <mxGeometry width="30" height="30" as="geometry">
                        <mxRectangle width="30" height="30" as="alternateBounds"/>
                    </mxGeometry>
                </mxCell>
                <mxCell id="v-dE-zxuSy2YSCr7j2yd-43" value="famazonId: int" style="shape=partialRectangle;connectable=0;fillColor=none;top=0;left=0;bottom=0;right=0;align=left;spacingLeft=6;fontStyle=5;overflow=hidden;" parent="v-dE-zxuSy2YSCr7j2yd-41" vertex="1">
                    <mxGeometry x="30" width="150" height="30" as="geometry">
                        <mxRectangle width="150" height="30" as="alternateBounds"/>
                    </mxGeometry>
                </mxCell>
                <mxCell id="v-dE-zxuSy2YSCr7j2yd-44" value="" style="shape=partialRectangle;collapsible=0;dropTarget=0;pointerEvents=0;fillColor=none;top=0;left=0;bottom=0;right=0;points=[[0,0.5],[1,0.5]];portConstraint=eastwest;" parent="v-dE-zxuSy2YSCr7j2yd-40" vertex="1">
                    <mxGeometry y="60" width="180" height="30" as="geometry"/>
                </mxCell>
                <mxCell id="v-dE-zxuSy2YSCr7j2yd-45" value="" style="shape=partialRectangle;connectable=0;fillColor=none;top=0;left=0;bottom=0;right=0;editable=1;overflow=hidden;" parent="v-dE-zxuSy2YSCr7j2yd-44" vertex="1">
                    <mxGeometry width="30" height="30" as="geometry">
                        <mxRectangle width="30" height="30" as="alternateBounds"/>
                    </mxGeometry>
                </mxCell>
                <mxCell id="v-dE-zxuSy2YSCr7j2yd-46" value="fk_cusomterId: int" style="shape=partialRectangle;connectable=0;fillColor=none;top=0;left=0;bottom=0;right=0;align=left;spacingLeft=6;overflow=hidden;" parent="v-dE-zxuSy2YSCr7j2yd-44" vertex="1">
                    <mxGeometry x="30" width="150" height="30" as="geometry">
                        <mxRectangle width="150" height="30" as="alternateBounds"/>
                    </mxGeometry>
                </mxCell>
                <mxCell id="v-dE-zxuSy2YSCr7j2yd-47" value="" style="shape=partialRectangle;collapsible=0;dropTarget=0;pointerEvents=0;fillColor=none;top=0;left=0;bottom=0;right=0;points=[[0,0.5],[1,0.5]];portConstraint=eastwest;" parent="v-dE-zxuSy2YSCr7j2yd-40" vertex="1">
                    <mxGeometry y="90" width="180" height="30" as="geometry"/>
                </mxCell>
                <mxCell id="v-dE-zxuSy2YSCr7j2yd-48" value="" style="shape=partialRectangle;connectable=0;fillColor=none;top=0;left=0;bottom=0;right=0;editable=1;overflow=hidden;" parent="v-dE-zxuSy2YSCr7j2yd-47" vertex="1">
                    <mxGeometry width="30" height="30" as="geometry">
                        <mxRectangle width="30" height="30" as="alternateBounds"/>
                    </mxGeometry>
                </mxCell>
                <mxCell id="v-dE-zxuSy2YSCr7j2yd-49" value="fk_productId: int" style="shape=partialRectangle;connectable=0;fillColor=none;top=0;left=0;bottom=0;right=0;align=left;spacingLeft=6;overflow=hidden;" parent="v-dE-zxuSy2YSCr7j2yd-47" vertex="1">
                    <mxGeometry x="30" width="150" height="30" as="geometry">
                        <mxRectangle width="150" height="30" as="alternateBounds"/>
                    </mxGeometry>
                </mxCell>
                <mxCell id="v-dE-zxuSy2YSCr7j2yd-60" value="products" style="shape=table;startSize=30;container=1;collapsible=1;childLayout=tableLayout;fixedRows=1;rowLines=0;fontStyle=1;align=center;resizeLast=1;" parent="v-dE-zxuSy2YSCr7j2yd-1" vertex="1">
                    <mxGeometry x="760" y="190" width="180" height="130" as="geometry"/>
                </mxCell>
                <mxCell id="v-dE-zxuSy2YSCr7j2yd-61" value="" style="shape=partialRectangle;collapsible=0;dropTarget=0;pointerEvents=0;fillColor=none;top=0;left=0;bottom=1;right=0;points=[[0,0.5],[1,0.5]];portConstraint=eastwest;" parent="v-dE-zxuSy2YSCr7j2yd-60" vertex="1">
                    <mxGeometry y="30" width="180" height="30" as="geometry"/>
                </mxCell>
                <mxCell id="v-dE-zxuSy2YSCr7j2yd-62" value="PK" style="shape=partialRectangle;connectable=0;fillColor=none;top=0;left=0;bottom=0;right=0;fontStyle=1;overflow=hidden;" parent="v-dE-zxuSy2YSCr7j2yd-61" vertex="1">
                    <mxGeometry width="30" height="30" as="geometry">
                        <mxRectangle width="30" height="30" as="alternateBounds"/>
                    </mxGeometry>
                </mxCell>
                <mxCell id="v-dE-zxuSy2YSCr7j2yd-63" value="productId: int" style="shape=partialRectangle;connectable=0;fillColor=none;top=0;left=0;bottom=0;right=0;align=left;spacingLeft=6;fontStyle=5;overflow=hidden;" parent="v-dE-zxuSy2YSCr7j2yd-61" vertex="1">
                    <mxGeometry x="30" width="150" height="30" as="geometry">
                        <mxRectangle width="150" height="30" as="alternateBounds"/>
                    </mxGeometry>
                </mxCell>
                <mxCell id="v-dE-zxuSy2YSCr7j2yd-64" value="" style="shape=partialRectangle;collapsible=0;dropTarget=0;pointerEvents=0;fillColor=none;top=0;left=0;bottom=0;right=0;points=[[0,0.5],[1,0.5]];portConstraint=eastwest;" parent="v-dE-zxuSy2YSCr7j2yd-60" vertex="1">
                    <mxGeometry y="60" width="180" height="30" as="geometry"/>
                </mxCell>
                <mxCell id="v-dE-zxuSy2YSCr7j2yd-65" value="" style="shape=partialRectangle;connectable=0;fillColor=none;top=0;left=0;bottom=0;right=0;editable=1;overflow=hidden;" parent="v-dE-zxuSy2YSCr7j2yd-64" vertex="1">
                    <mxGeometry width="30" height="30" as="geometry">
                        <mxRectangle width="30" height="30" as="alternateBounds"/>
                    </mxGeometry>
                </mxCell>
                <mxCell id="v-dE-zxuSy2YSCr7j2yd-66" value="brand: string" style="shape=partialRectangle;connectable=0;fillColor=none;top=0;left=0;bottom=0;right=0;align=left;spacingLeft=6;overflow=hidden;" parent="v-dE-zxuSy2YSCr7j2yd-64" vertex="1">
                    <mxGeometry x="30" width="150" height="30" as="geometry">
                        <mxRectangle width="150" height="30" as="alternateBounds"/>
                    </mxGeometry>
                </mxCell>
                <mxCell id="v-dE-zxuSy2YSCr7j2yd-67" value="" style="shape=partialRectangle;collapsible=0;dropTarget=0;pointerEvents=0;fillColor=none;top=0;left=0;bottom=0;right=0;points=[[0,0.5],[1,0.5]];portConstraint=eastwest;" parent="v-dE-zxuSy2YSCr7j2yd-60" vertex="1">
                    <mxGeometry y="90" width="180" height="30" as="geometry"/>
                </mxCell>
                <mxCell id="v-dE-zxuSy2YSCr7j2yd-68" value="" style="shape=partialRectangle;connectable=0;fillColor=none;top=0;left=0;bottom=0;right=0;editable=1;overflow=hidden;" parent="v-dE-zxuSy2YSCr7j2yd-67" vertex="1">
                    <mxGeometry width="30" height="30" as="geometry">
                        <mxRectangle width="30" height="30" as="alternateBounds"/>
                    </mxGeometry>
                </mxCell>
                <mxCell id="v-dE-zxuSy2YSCr7j2yd-69" value="productName: string" style="shape=partialRectangle;connectable=0;fillColor=none;top=0;left=0;bottom=0;right=0;align=left;spacingLeft=6;overflow=hidden;" parent="v-dE-zxuSy2YSCr7j2yd-67" vertex="1">
                    <mxGeometry x="30" width="150" height="30" as="geometry">
                        <mxRectangle width="150" height="30" as="alternateBounds"/>
                    </mxGeometry>
                </mxCell>
                <mxCell id="v-dE-zxuSy2YSCr7j2yd-70" value="company" style="shape=table;startSize=30;container=1;collapsible=1;childLayout=tableLayout;fixedRows=1;rowLines=0;fontStyle=1;align=center;resizeLast=1;" parent="v-dE-zxuSy2YSCr7j2yd-1" vertex="1">
                    <mxGeometry x="750" y="510" width="180" height="190" as="geometry"/>
                </mxCell>
                <mxCell id="v-dE-zxuSy2YSCr7j2yd-71" value="" style="shape=partialRectangle;collapsible=0;dropTarget=0;pointerEvents=0;fillColor=none;top=0;left=0;bottom=1;right=0;points=[[0,0.5],[1,0.5]];portConstraint=eastwest;" parent="v-dE-zxuSy2YSCr7j2yd-70" vertex="1">
                    <mxGeometry y="30" width="180" height="30" as="geometry"/>
                </mxCell>
                <mxCell id="v-dE-zxuSy2YSCr7j2yd-72" value="PK" style="shape=partialRectangle;connectable=0;fillColor=none;top=0;left=0;bottom=0;right=0;fontStyle=1;overflow=hidden;" parent="v-dE-zxuSy2YSCr7j2yd-71" vertex="1">
                    <mxGeometry width="30" height="30" as="geometry">
                        <mxRectangle width="30" height="30" as="alternateBounds"/>
                    </mxGeometry>
                </mxCell>
                <mxCell id="v-dE-zxuSy2YSCr7j2yd-73" value="companyId: int" style="shape=partialRectangle;connectable=0;fillColor=none;top=0;left=0;bottom=0;right=0;align=left;spacingLeft=6;fontStyle=5;overflow=hidden;" parent="v-dE-zxuSy2YSCr7j2yd-71" vertex="1">
                    <mxGeometry x="30" width="150" height="30" as="geometry">
                        <mxRectangle width="150" height="30" as="alternateBounds"/>
                    </mxGeometry>
                </mxCell>
                <mxCell id="v-dE-zxuSy2YSCr7j2yd-74" value="" style="shape=partialRectangle;collapsible=0;dropTarget=0;pointerEvents=0;fillColor=none;top=0;left=0;bottom=0;right=0;points=[[0,0.5],[1,0.5]];portConstraint=eastwest;" parent="v-dE-zxuSy2YSCr7j2yd-70" vertex="1">
                    <mxGeometry y="60" width="180" height="30" as="geometry"/>
                </mxCell>
                <mxCell id="v-dE-zxuSy2YSCr7j2yd-75" value="" style="shape=partialRectangle;connectable=0;fillColor=none;top=0;left=0;bottom=0;right=0;editable=1;overflow=hidden;" parent="v-dE-zxuSy2YSCr7j2yd-74" vertex="1">
                    <mxGeometry width="30" height="30" as="geometry">
                        <mxRectangle width="30" height="30" as="alternateBounds"/>
                    </mxGeometry>
                </mxCell>
                <mxCell id="v-dE-zxuSy2YSCr7j2yd-76" value="companyName: string" style="shape=partialRectangle;connectable=0;fillColor=none;top=0;left=0;bottom=0;right=0;align=left;spacingLeft=6;overflow=hidden;" parent="v-dE-zxuSy2YSCr7j2yd-74" vertex="1">
                    <mxGeometry x="30" width="150" height="30" as="geometry">
                        <mxRectangle width="150" height="30" as="alternateBounds"/>
                    </mxGeometry>
                </mxCell>
                <mxCell id="v-dE-zxuSy2YSCr7j2yd-77" value="" style="shape=partialRectangle;collapsible=0;dropTarget=0;pointerEvents=0;fillColor=none;top=0;left=0;bottom=0;right=0;points=[[0,0.5],[1,0.5]];portConstraint=eastwest;" parent="v-dE-zxuSy2YSCr7j2yd-70" vertex="1">
                    <mxGeometry y="90" width="180" height="30" as="geometry"/>
                </mxCell>
                <mxCell id="v-dE-zxuSy2YSCr7j2yd-78" value="" style="shape=partialRectangle;connectable=0;fillColor=none;top=0;left=0;bottom=0;right=0;editable=1;overflow=hidden;" parent="v-dE-zxuSy2YSCr7j2yd-77" vertex="1">
                    <mxGeometry width="30" height="30" as="geometry">
                        <mxRectangle width="30" height="30" as="alternateBounds"/>
                    </mxGeometry>
                </mxCell>
                <mxCell id="v-dE-zxuSy2YSCr7j2yd-79" value="companyAdress: string" style="shape=partialRectangle;connectable=0;fillColor=none;top=0;left=0;bottom=0;right=0;align=left;spacingLeft=6;overflow=hidden;" parent="v-dE-zxuSy2YSCr7j2yd-77" vertex="1">
                    <mxGeometry x="30" width="150" height="30" as="geometry">
                        <mxRectangle width="150" height="30" as="alternateBounds"/>
                    </mxGeometry>
                </mxCell>
                <mxCell id="v-dE-zxuSy2YSCr7j2yd-80" value="" style="shape=partialRectangle;collapsible=0;dropTarget=0;pointerEvents=0;fillColor=none;top=0;left=0;bottom=0;right=0;points=[[0,0.5],[1,0.5]];portConstraint=eastwest;" parent="v-dE-zxuSy2YSCr7j2yd-70" vertex="1">
                    <mxGeometry y="120" width="180" height="30" as="geometry"/>
                </mxCell>
                <mxCell id="v-dE-zxuSy2YSCr7j2yd-81" value="" style="shape=partialRectangle;connectable=0;fillColor=none;top=0;left=0;bottom=0;right=0;editable=1;overflow=hidden;" parent="v-dE-zxuSy2YSCr7j2yd-80" vertex="1">
                    <mxGeometry width="30" height="30" as="geometry">
                        <mxRectangle width="30" height="30" as="alternateBounds"/>
                    </mxGeometry>
                </mxCell>
                <mxCell id="v-dE-zxuSy2YSCr7j2yd-82" value="orderId: int" style="shape=partialRectangle;connectable=0;fillColor=none;top=0;left=0;bottom=0;right=0;align=left;spacingLeft=6;overflow=hidden;" parent="v-dE-zxuSy2YSCr7j2yd-80" vertex="1">
                    <mxGeometry x="30" width="150" height="30" as="geometry">
                        <mxRectangle width="150" height="30" as="alternateBounds"/>
                    </mxGeometry>
                </mxCell>
                <mxCell id="v-dE-zxuSy2YSCr7j2yd-83" value="" style="shape=partialRectangle;collapsible=0;dropTarget=0;pointerEvents=0;fillColor=none;top=0;left=0;bottom=0;right=0;points=[[0,0.5],[1,0.5]];portConstraint=eastwest;" parent="v-dE-zxuSy2YSCr7j2yd-70" vertex="1">
                    <mxGeometry y="150" width="180" height="30" as="geometry"/>
                </mxCell>
                <mxCell id="v-dE-zxuSy2YSCr7j2yd-84" value="" style="shape=partialRectangle;connectable=0;fillColor=none;top=0;left=0;bottom=0;right=0;editable=1;overflow=hidden;" parent="v-dE-zxuSy2YSCr7j2yd-83" vertex="1">
                    <mxGeometry width="30" height="30" as="geometry">
                        <mxRectangle width="30" height="30" as="alternateBounds"/>
                    </mxGeometry>
                </mxCell>
                <mxCell id="v-dE-zxuSy2YSCr7j2yd-85" value="fk_productId: int" style="shape=partialRectangle;connectable=0;fillColor=none;top=0;left=0;bottom=0;right=0;align=left;spacingLeft=6;overflow=hidden;" parent="v-dE-zxuSy2YSCr7j2yd-83" vertex="1">
                    <mxGeometry x="30" width="150" height="30" as="geometry">
                        <mxRectangle width="150" height="30" as="alternateBounds"/>
                    </mxGeometry>
                </mxCell>
                <mxCell id="v-dE-zxuSy2YSCr7j2yd-86" value="ShippingCompany" style="shape=table;startSize=30;container=1;collapsible=1;childLayout=tableLayout;fixedRows=1;rowLines=0;fontStyle=1;align=center;resizeLast=1;" parent="v-dE-zxuSy2YSCr7j2yd-1" vertex="1">
                    <mxGeometry x="490" y="540" width="220" height="130" as="geometry"/>
                </mxCell>
                <mxCell id="v-dE-zxuSy2YSCr7j2yd-87" value="" style="shape=partialRectangle;collapsible=0;dropTarget=0;pointerEvents=0;fillColor=none;top=0;left=0;bottom=1;right=0;points=[[0,0.5],[1,0.5]];portConstraint=eastwest;" parent="v-dE-zxuSy2YSCr7j2yd-86" vertex="1">
                    <mxGeometry y="30" width="220" height="30" as="geometry"/>
                </mxCell>
                <mxCell id="v-dE-zxuSy2YSCr7j2yd-88" value="PK" style="shape=partialRectangle;connectable=0;fillColor=none;top=0;left=0;bottom=0;right=0;fontStyle=1;overflow=hidden;" parent="v-dE-zxuSy2YSCr7j2yd-87" vertex="1">
                    <mxGeometry width="30" height="30" as="geometry">
                        <mxRectangle width="30" height="30" as="alternateBounds"/>
                    </mxGeometry>
                </mxCell>
                <mxCell id="v-dE-zxuSy2YSCr7j2yd-89" value="shippingCompanyId: int" style="shape=partialRectangle;connectable=0;fillColor=none;top=0;left=0;bottom=0;right=0;align=left;spacingLeft=6;fontStyle=5;overflow=hidden;" parent="v-dE-zxuSy2YSCr7j2yd-87" vertex="1">
                    <mxGeometry x="30" width="190" height="30" as="geometry">
                        <mxRectangle width="190" height="30" as="alternateBounds"/>
                    </mxGeometry>
                </mxCell>
                <mxCell id="v-dE-zxuSy2YSCr7j2yd-90" value="" style="shape=partialRectangle;collapsible=0;dropTarget=0;pointerEvents=0;fillColor=none;top=0;left=0;bottom=0;right=0;points=[[0,0.5],[1,0.5]];portConstraint=eastwest;" parent="v-dE-zxuSy2YSCr7j2yd-86" vertex="1">
                    <mxGeometry y="60" width="220" height="30" as="geometry"/>
                </mxCell>
                <mxCell id="v-dE-zxuSy2YSCr7j2yd-91" value="" style="shape=partialRectangle;connectable=0;fillColor=none;top=0;left=0;bottom=0;right=0;editable=1;overflow=hidden;" parent="v-dE-zxuSy2YSCr7j2yd-90" vertex="1">
                    <mxGeometry width="30" height="30" as="geometry">
                        <mxRectangle width="30" height="30" as="alternateBounds"/>
                    </mxGeometry>
                </mxCell>
                <mxCell id="v-dE-zxuSy2YSCr7j2yd-92" value="shippingCompanyName: string" style="shape=partialRectangle;connectable=0;fillColor=none;top=0;left=0;bottom=0;right=0;align=left;spacingLeft=6;overflow=hidden;" parent="v-dE-zxuSy2YSCr7j2yd-90" vertex="1">
                    <mxGeometry x="30" width="190" height="30" as="geometry">
                        <mxRectangle width="190" height="30" as="alternateBounds"/>
                    </mxGeometry>
                </mxCell>
                <mxCell id="v-dE-zxuSy2YSCr7j2yd-93" value="" style="shape=partialRectangle;collapsible=0;dropTarget=0;pointerEvents=0;fillColor=none;top=0;left=0;bottom=0;right=0;points=[[0,0.5],[1,0.5]];portConstraint=eastwest;" parent="v-dE-zxuSy2YSCr7j2yd-86" vertex="1">
                    <mxGeometry y="90" width="220" height="30" as="geometry"/>
                </mxCell>
                <mxCell id="v-dE-zxuSy2YSCr7j2yd-94" value="" style="shape=partialRectangle;connectable=0;fillColor=none;top=0;left=0;bottom=0;right=0;editable=1;overflow=hidden;" parent="v-dE-zxuSy2YSCr7j2yd-93" vertex="1">
                    <mxGeometry width="30" height="30" as="geometry">
                        <mxRectangle width="30" height="30" as="alternateBounds"/>
                    </mxGeometry>
                </mxCell>
                <mxCell id="v-dE-zxuSy2YSCr7j2yd-95" value="fk_companyId: int" style="shape=partialRectangle;connectable=0;fillColor=none;top=0;left=0;bottom=0;right=0;align=left;spacingLeft=6;overflow=hidden;" parent="v-dE-zxuSy2YSCr7j2yd-93" vertex="1">
                    <mxGeometry x="30" width="190" height="30" as="geometry">
                        <mxRectangle width="190" height="30" as="alternateBounds"/>
                    </mxGeometry>
                </mxCell>
                <mxCell id="v-dE-zxuSy2YSCr7j2yd-96" value="shipping" style="shape=table;startSize=30;container=1;collapsible=1;childLayout=tableLayout;fixedRows=1;rowLines=0;fontStyle=1;align=center;resizeLast=1;" parent="v-dE-zxuSy2YSCr7j2yd-1" vertex="1">
                    <mxGeometry x="210" y="540" width="204" height="130" as="geometry"/>
                </mxCell>
                <mxCell id="v-dE-zxuSy2YSCr7j2yd-97" value="" style="shape=partialRectangle;collapsible=0;dropTarget=0;pointerEvents=0;fillColor=none;top=0;left=0;bottom=1;right=0;points=[[0,0.5],[1,0.5]];portConstraint=eastwest;" parent="v-dE-zxuSy2YSCr7j2yd-96" vertex="1">
                    <mxGeometry y="30" width="204" height="30" as="geometry"/>
                </mxCell>
                <mxCell id="v-dE-zxuSy2YSCr7j2yd-98" value="PK" style="shape=partialRectangle;connectable=0;fillColor=none;top=0;left=0;bottom=0;right=0;fontStyle=1;overflow=hidden;" parent="v-dE-zxuSy2YSCr7j2yd-97" vertex="1">
                    <mxGeometry width="30" height="30" as="geometry">
                        <mxRectangle width="30" height="30" as="alternateBounds"/>
                    </mxGeometry>
                </mxCell>
                <mxCell id="v-dE-zxuSy2YSCr7j2yd-99" value="shippingId: int" style="shape=partialRectangle;connectable=0;fillColor=none;top=0;left=0;bottom=0;right=0;align=left;spacingLeft=6;fontStyle=5;overflow=hidden;" parent="v-dE-zxuSy2YSCr7j2yd-97" vertex="1">
                    <mxGeometry x="30" width="174" height="30" as="geometry">
                        <mxRectangle width="174" height="30" as="alternateBounds"/>
                    </mxGeometry>
                </mxCell>
                <mxCell id="v-dE-zxuSy2YSCr7j2yd-100" value="" style="shape=partialRectangle;collapsible=0;dropTarget=0;pointerEvents=0;fillColor=none;top=0;left=0;bottom=0;right=0;points=[[0,0.5],[1,0.5]];portConstraint=eastwest;" parent="v-dE-zxuSy2YSCr7j2yd-96" vertex="1">
                    <mxGeometry y="60" width="204" height="30" as="geometry"/>
                </mxCell>
                <mxCell id="v-dE-zxuSy2YSCr7j2yd-101" value="" style="shape=partialRectangle;connectable=0;fillColor=none;top=0;left=0;bottom=0;right=0;editable=1;overflow=hidden;" parent="v-dE-zxuSy2YSCr7j2yd-100" vertex="1">
                    <mxGeometry width="30" height="30" as="geometry">
                        <mxRectangle width="30" height="30" as="alternateBounds"/>
                    </mxGeometry>
                </mxCell>
                <mxCell id="v-dE-zxuSy2YSCr7j2yd-102" value="deliveryTime: date" style="shape=partialRectangle;connectable=0;fillColor=none;top=0;left=0;bottom=0;right=0;align=left;spacingLeft=6;overflow=hidden;" parent="v-dE-zxuSy2YSCr7j2yd-100" vertex="1">
                    <mxGeometry x="30" width="174" height="30" as="geometry">
                        <mxRectangle width="174" height="30" as="alternateBounds"/>
                    </mxGeometry>
                </mxCell>
                <mxCell id="v-dE-zxuSy2YSCr7j2yd-103" value="" style="shape=partialRectangle;collapsible=0;dropTarget=0;pointerEvents=0;fillColor=none;top=0;left=0;bottom=0;right=0;points=[[0,0.5],[1,0.5]];portConstraint=eastwest;" parent="v-dE-zxuSy2YSCr7j2yd-96" vertex="1">
                    <mxGeometry y="90" width="204" height="30" as="geometry"/>
                </mxCell>
                <mxCell id="v-dE-zxuSy2YSCr7j2yd-104" value="" style="shape=partialRectangle;connectable=0;fillColor=none;top=0;left=0;bottom=0;right=0;editable=1;overflow=hidden;" parent="v-dE-zxuSy2YSCr7j2yd-103" vertex="1">
                    <mxGeometry width="30" height="30" as="geometry">
                        <mxRectangle width="30" height="30" as="alternateBounds"/>
                    </mxGeometry>
                </mxCell>
                <mxCell id="v-dE-zxuSy2YSCr7j2yd-105" value="fk_shippingCompanyId: int" style="shape=partialRectangle;connectable=0;fillColor=none;top=0;left=0;bottom=0;right=0;align=left;spacingLeft=6;overflow=hidden;" parent="v-dE-zxuSy2YSCr7j2yd-103" vertex="1">
                    <mxGeometry x="30" width="174" height="30" as="geometry">
                        <mxRectangle width="174" height="30" as="alternateBounds"/>
                    </mxGeometry>
                </mxCell>
                <mxCell id="v-dE-zxuSy2YSCr7j2yd-106" style="edgeStyle=orthogonalEdgeStyle;html=1;entryX=1;entryY=0.5;entryDx=0;entryDy=0;exitX=0;exitY=0.5;exitDx=0;exitDy=0;endArrow=ERone;endFill=0;startArrow=ERone;startFill=0;" parent="v-dE-zxuSy2YSCr7j2yd-1" source="v-dE-zxuSy2YSCr7j2yd-25" target="v-dE-zxuSy2YSCr7j2yd-21" edge="1">
                    <mxGeometry relative="1" as="geometry"/>
                </mxCell>
                <mxCell id="v-dE-zxuSy2YSCr7j2yd-107" style="edgeStyle=orthogonalEdgeStyle;html=1;entryX=0;entryY=0.5;entryDx=0;entryDy=0;startArrow=ERmany;startFill=0;endArrow=ERone;endFill=0;" parent="v-dE-zxuSy2YSCr7j2yd-1" source="v-dE-zxuSy2YSCr7j2yd-25" target="v-dE-zxuSy2YSCr7j2yd-44" edge="1">
                    <mxGeometry relative="1" as="geometry"/>
                </mxCell>
                <mxCell id="v-dE-zxuSy2YSCr7j2yd-109" style="edgeStyle=orthogonalEdgeStyle;html=1;entryX=1;entryY=0.5;entryDx=0;entryDy=0;startArrow=ERmany;startFill=0;endArrow=ERone;endFill=0;" parent="v-dE-zxuSy2YSCr7j2yd-1" source="v-dE-zxuSy2YSCr7j2yd-83" target="v-dE-zxuSy2YSCr7j2yd-61" edge="1">
                    <mxGeometry relative="1" as="geometry"/>
                </mxCell>
                <mxCell id="v-dE-zxuSy2YSCr7j2yd-110" style="edgeStyle=orthogonalEdgeStyle;html=1;entryX=0.996;entryY=0.757;entryDx=0;entryDy=0;entryPerimeter=0;startArrow=ERmany;startFill=0;endArrow=ERone;endFill=0;" parent="v-dE-zxuSy2YSCr7j2yd-1" source="v-dE-zxuSy2YSCr7j2yd-71" target="v-dE-zxuSy2YSCr7j2yd-90" edge="1">
                    <mxGeometry relative="1" as="geometry"/>
                </mxCell>
                <mxCell id="v-dE-zxuSy2YSCr7j2yd-111" style="edgeStyle=orthogonalEdgeStyle;html=1;entryX=0;entryY=0.5;entryDx=0;entryDy=0;startArrow=ERone;startFill=0;endArrow=ERone;endFill=0;" parent="v-dE-zxuSy2YSCr7j2yd-1" source="v-dE-zxuSy2YSCr7j2yd-103" target="v-dE-zxuSy2YSCr7j2yd-87" edge="1">
                    <mxGeometry relative="1" as="geometry"/>
                </mxCell>
                <mxCell id="v-dE-zxuSy2YSCr7j2yd-112" style="edgeStyle=orthogonalEdgeStyle;html=1;entryX=1.011;entryY=0.725;entryDx=0;entryDy=0;entryPerimeter=0;startArrow=ERone;startFill=0;endArrow=ERone;endFill=0;" parent="v-dE-zxuSy2YSCr7j2yd-1" source="v-dE-zxuSy2YSCr7j2yd-37" target="v-dE-zxuSy2YSCr7j2yd-100" edge="1">
                    <mxGeometry relative="1" as="geometry"/>
                </mxCell>
                <mxCell id="v-dE-zxuSy2YSCr7j2yd-113" style="edgeStyle=orthogonalEdgeStyle;html=1;entryX=0;entryY=0.5;entryDx=0;entryDy=0;startArrow=ERone;startFill=0;endArrow=ERmany;endFill=0;" parent="v-dE-zxuSy2YSCr7j2yd-1" source="v-dE-zxuSy2YSCr7j2yd-47" target="v-dE-zxuSy2YSCr7j2yd-61" edge="1">
                    <mxGeometry relative="1" as="geometry"/>
                </mxCell>
            </root>
        </mxGraphModel>
    </diagram>
    <diagram id="oEqgwM6ZF3zO0Ef6Sc0d" name="Refine">
        <mxGraphModel dx="1873" dy="687" grid="1" gridSize="10" guides="1" tooltips="1" connect="1" arrows="1" fold="1" page="1" pageScale="1" pageWidth="827" pageHeight="1169" math="0" shadow="0">
            <root>
                <mxCell id="ft3dOQmXn69FfvkLFlMF-0"/>
                <mxCell id="ft3dOQmXn69FfvkLFlMF-1" parent="ft3dOQmXn69FfvkLFlMF-0"/>
                <mxCell id="ft3dOQmXn69FfvkLFlMF-2" value="Account" style="shape=table;startSize=30;container=1;collapsible=1;childLayout=tableLayout;fixedRows=1;rowLines=0;fontStyle=1;align=center;resizeLast=1;" parent="ft3dOQmXn69FfvkLFlMF-1" vertex="1">
                    <mxGeometry x="10" y="190" width="180" height="160" as="geometry"/>
                </mxCell>
                <mxCell id="ft3dOQmXn69FfvkLFlMF-3" value="" style="shape=partialRectangle;collapsible=0;dropTarget=0;pointerEvents=0;fillColor=none;top=0;left=0;bottom=1;right=0;points=[[0,0.5],[1,0.5]];portConstraint=eastwest;" parent="ft3dOQmXn69FfvkLFlMF-2" vertex="1">
                    <mxGeometry y="30" width="180" height="30" as="geometry"/>
                </mxCell>
                <mxCell id="ft3dOQmXn69FfvkLFlMF-4" value="PK" style="shape=partialRectangle;connectable=0;fillColor=none;top=0;left=0;bottom=0;right=0;fontStyle=1;overflow=hidden;" parent="ft3dOQmXn69FfvkLFlMF-3" vertex="1">
                    <mxGeometry width="30" height="30" as="geometry">
                        <mxRectangle width="30" height="30" as="alternateBounds"/>
                    </mxGeometry>
                </mxCell>
                <mxCell id="ft3dOQmXn69FfvkLFlMF-5" value="accountId: int" style="shape=partialRectangle;connectable=0;fillColor=none;top=0;left=0;bottom=0;right=0;align=left;spacingLeft=6;fontStyle=5;overflow=hidden;" parent="ft3dOQmXn69FfvkLFlMF-3" vertex="1">
                    <mxGeometry x="30" width="150" height="30" as="geometry">
                        <mxRectangle width="150" height="30" as="alternateBounds"/>
                    </mxGeometry>
                </mxCell>
                <mxCell id="ft3dOQmXn69FfvkLFlMF-6" value="" style="shape=partialRectangle;collapsible=0;dropTarget=0;pointerEvents=0;fillColor=none;top=0;left=0;bottom=0;right=0;points=[[0,0.5],[1,0.5]];portConstraint=eastwest;" parent="ft3dOQmXn69FfvkLFlMF-2" vertex="1">
                    <mxGeometry y="60" width="180" height="30" as="geometry"/>
                </mxCell>
                <mxCell id="ft3dOQmXn69FfvkLFlMF-7" value="" style="shape=partialRectangle;connectable=0;fillColor=none;top=0;left=0;bottom=0;right=0;editable=1;overflow=hidden;" parent="ft3dOQmXn69FfvkLFlMF-6" vertex="1">
                    <mxGeometry width="30" height="30" as="geometry">
                        <mxRectangle width="30" height="30" as="alternateBounds"/>
                    </mxGeometry>
                </mxCell>
                <mxCell id="ft3dOQmXn69FfvkLFlMF-8" value="username: string" style="shape=partialRectangle;connectable=0;fillColor=none;top=0;left=0;bottom=0;right=0;align=left;spacingLeft=6;overflow=hidden;" parent="ft3dOQmXn69FfvkLFlMF-6" vertex="1">
                    <mxGeometry x="30" width="150" height="30" as="geometry">
                        <mxRectangle width="150" height="30" as="alternateBounds"/>
                    </mxGeometry>
                </mxCell>
                <mxCell id="ft3dOQmXn69FfvkLFlMF-9" value="" style="shape=partialRectangle;collapsible=0;dropTarget=0;pointerEvents=0;fillColor=none;top=0;left=0;bottom=0;right=0;points=[[0,0.5],[1,0.5]];portConstraint=eastwest;" parent="ft3dOQmXn69FfvkLFlMF-2" vertex="1">
                    <mxGeometry y="90" width="180" height="30" as="geometry"/>
                </mxCell>
                <mxCell id="ft3dOQmXn69FfvkLFlMF-10" value="" style="shape=partialRectangle;connectable=0;fillColor=none;top=0;left=0;bottom=0;right=0;editable=1;overflow=hidden;" parent="ft3dOQmXn69FfvkLFlMF-9" vertex="1">
                    <mxGeometry width="30" height="30" as="geometry">
                        <mxRectangle width="30" height="30" as="alternateBounds"/>
                    </mxGeometry>
                </mxCell>
                <mxCell id="ft3dOQmXn69FfvkLFlMF-11" value="address: string" style="shape=partialRectangle;connectable=0;fillColor=none;top=0;left=0;bottom=0;right=0;align=left;spacingLeft=6;overflow=hidden;" parent="ft3dOQmXn69FfvkLFlMF-9" vertex="1">
                    <mxGeometry x="30" width="150" height="30" as="geometry">
                        <mxRectangle width="150" height="30" as="alternateBounds"/>
                    </mxGeometry>
                </mxCell>
                <mxCell id="ft3dOQmXn69FfvkLFlMF-12" value="" style="shape=partialRectangle;collapsible=0;dropTarget=0;pointerEvents=0;fillColor=none;top=0;left=0;bottom=0;right=0;points=[[0,0.5],[1,0.5]];portConstraint=eastwest;" parent="ft3dOQmXn69FfvkLFlMF-2" vertex="1">
                    <mxGeometry y="120" width="180" height="30" as="geometry"/>
                </mxCell>
                <mxCell id="ft3dOQmXn69FfvkLFlMF-13" value="" style="shape=partialRectangle;connectable=0;fillColor=none;top=0;left=0;bottom=0;right=0;editable=1;overflow=hidden;" parent="ft3dOQmXn69FfvkLFlMF-12" vertex="1">
                    <mxGeometry width="30" height="30" as="geometry">
                        <mxRectangle width="30" height="30" as="alternateBounds"/>
                    </mxGeometry>
                </mxCell>
                <mxCell id="ft3dOQmXn69FfvkLFlMF-14" value="fk_customerId: int" style="shape=partialRectangle;connectable=0;fillColor=none;top=0;left=0;bottom=0;right=0;align=left;spacingLeft=6;overflow=hidden;" parent="ft3dOQmXn69FfvkLFlMF-12" vertex="1">
                    <mxGeometry x="30" width="150" height="30" as="geometry">
                        <mxRectangle width="150" height="30" as="alternateBounds"/>
                    </mxGeometry>
                </mxCell>
                <mxCell id="ft3dOQmXn69FfvkLFlMF-15" value="Customer" style="shape=table;startSize=30;container=1;collapsible=1;childLayout=tableLayout;fixedRows=1;rowLines=0;fontStyle=1;align=center;resizeLast=1;" parent="ft3dOQmXn69FfvkLFlMF-1" vertex="1">
                    <mxGeometry x="270" y="190" width="180" height="160" as="geometry"/>
                </mxCell>
                <mxCell id="ft3dOQmXn69FfvkLFlMF-16" value="" style="shape=partialRectangle;collapsible=0;dropTarget=0;pointerEvents=0;fillColor=none;top=0;left=0;bottom=1;right=0;points=[[0,0.5],[1,0.5]];portConstraint=eastwest;" parent="ft3dOQmXn69FfvkLFlMF-15" vertex="1">
                    <mxGeometry y="30" width="180" height="30" as="geometry"/>
                </mxCell>
                <mxCell id="ft3dOQmXn69FfvkLFlMF-17" value="PK" style="shape=partialRectangle;connectable=0;fillColor=none;top=0;left=0;bottom=0;right=0;fontStyle=1;overflow=hidden;" parent="ft3dOQmXn69FfvkLFlMF-16" vertex="1">
                    <mxGeometry width="30" height="30" as="geometry">
                        <mxRectangle width="30" height="30" as="alternateBounds"/>
                    </mxGeometry>
                </mxCell>
                <mxCell id="ft3dOQmXn69FfvkLFlMF-18" value="customerId: int" style="shape=partialRectangle;connectable=0;fillColor=none;top=0;left=0;bottom=0;right=0;align=left;spacingLeft=6;fontStyle=5;overflow=hidden;" parent="ft3dOQmXn69FfvkLFlMF-16" vertex="1">
                    <mxGeometry x="30" width="150" height="30" as="geometry">
                        <mxRectangle width="150" height="30" as="alternateBounds"/>
                    </mxGeometry>
                </mxCell>
                <mxCell id="ft3dOQmXn69FfvkLFlMF-19" value="" style="shape=partialRectangle;collapsible=0;dropTarget=0;pointerEvents=0;fillColor=none;top=0;left=0;bottom=0;right=0;points=[[0,0.5],[1,0.5]];portConstraint=eastwest;" parent="ft3dOQmXn69FfvkLFlMF-15" vertex="1">
                    <mxGeometry y="60" width="180" height="30" as="geometry"/>
                </mxCell>
                <mxCell id="ft3dOQmXn69FfvkLFlMF-20" value="" style="shape=partialRectangle;connectable=0;fillColor=none;top=0;left=0;bottom=0;right=0;editable=1;overflow=hidden;" parent="ft3dOQmXn69FfvkLFlMF-19" vertex="1">
                    <mxGeometry width="30" height="30" as="geometry">
                        <mxRectangle width="30" height="30" as="alternateBounds"/>
                    </mxGeometry>
                </mxCell>
                <mxCell id="ft3dOQmXn69FfvkLFlMF-21" value="fName: string" style="shape=partialRectangle;connectable=0;fillColor=none;top=0;left=0;bottom=0;right=0;align=left;spacingLeft=6;overflow=hidden;" parent="ft3dOQmXn69FfvkLFlMF-19" vertex="1">
                    <mxGeometry x="30" width="150" height="30" as="geometry">
                        <mxRectangle width="150" height="30" as="alternateBounds"/>
                    </mxGeometry>
                </mxCell>
                <mxCell id="ft3dOQmXn69FfvkLFlMF-22" value="" style="shape=partialRectangle;collapsible=0;dropTarget=0;pointerEvents=0;fillColor=none;top=0;left=0;bottom=0;right=0;points=[[0,0.5],[1,0.5]];portConstraint=eastwest;" parent="ft3dOQmXn69FfvkLFlMF-15" vertex="1">
                    <mxGeometry y="90" width="180" height="30" as="geometry"/>
                </mxCell>
                <mxCell id="ft3dOQmXn69FfvkLFlMF-23" value="" style="shape=partialRectangle;connectable=0;fillColor=none;top=0;left=0;bottom=0;right=0;editable=1;overflow=hidden;" parent="ft3dOQmXn69FfvkLFlMF-22" vertex="1">
                    <mxGeometry width="30" height="30" as="geometry">
                        <mxRectangle width="30" height="30" as="alternateBounds"/>
                    </mxGeometry>
                </mxCell>
                <mxCell id="ft3dOQmXn69FfvkLFlMF-24" value="lName: string" style="shape=partialRectangle;connectable=0;fillColor=none;top=0;left=0;bottom=0;right=0;align=left;spacingLeft=6;overflow=hidden;" parent="ft3dOQmXn69FfvkLFlMF-22" vertex="1">
                    <mxGeometry x="30" width="150" height="30" as="geometry">
                        <mxRectangle width="150" height="30" as="alternateBounds"/>
                    </mxGeometry>
                </mxCell>
                <mxCell id="ft3dOQmXn69FfvkLFlMF-25" value="" style="shape=partialRectangle;collapsible=0;dropTarget=0;pointerEvents=0;fillColor=none;top=0;left=0;bottom=0;right=0;points=[[0,0.5],[1,0.5]];portConstraint=eastwest;" parent="ft3dOQmXn69FfvkLFlMF-15" vertex="1">
                    <mxGeometry y="120" width="180" height="30" as="geometry"/>
                </mxCell>
                <mxCell id="ft3dOQmXn69FfvkLFlMF-26" value="" style="shape=partialRectangle;connectable=0;fillColor=none;top=0;left=0;bottom=0;right=0;editable=1;overflow=hidden;" parent="ft3dOQmXn69FfvkLFlMF-25" vertex="1">
                    <mxGeometry width="30" height="30" as="geometry">
                        <mxRectangle width="30" height="30" as="alternateBounds"/>
                    </mxGeometry>
                </mxCell>
                <mxCell id="ft3dOQmXn69FfvkLFlMF-27" value="fk_shippingId" style="shape=partialRectangle;connectable=0;fillColor=none;top=0;left=0;bottom=0;right=0;align=left;spacingLeft=6;overflow=hidden;" parent="ft3dOQmXn69FfvkLFlMF-25" vertex="1">
                    <mxGeometry x="30" width="150" height="30" as="geometry">
                        <mxRectangle width="150" height="30" as="alternateBounds"/>
                    </mxGeometry>
                </mxCell>
                <mxCell id="ft3dOQmXn69FfvkLFlMF-28" value="Famazon" style="shape=table;startSize=30;container=1;collapsible=1;childLayout=tableLayout;fixedRows=1;rowLines=0;fontStyle=1;align=center;resizeLast=1;" parent="ft3dOQmXn69FfvkLFlMF-1" vertex="1">
                    <mxGeometry x="530" y="190" width="180" height="130" as="geometry"/>
                </mxCell>
                <mxCell id="ft3dOQmXn69FfvkLFlMF-29" value="" style="shape=partialRectangle;collapsible=0;dropTarget=0;pointerEvents=0;fillColor=none;top=0;left=0;bottom=1;right=0;points=[[0,0.5],[1,0.5]];portConstraint=eastwest;" parent="ft3dOQmXn69FfvkLFlMF-28" vertex="1">
                    <mxGeometry y="30" width="180" height="30" as="geometry"/>
                </mxCell>
                <mxCell id="ft3dOQmXn69FfvkLFlMF-30" value="PK" style="shape=partialRectangle;connectable=0;fillColor=none;top=0;left=0;bottom=0;right=0;fontStyle=1;overflow=hidden;" parent="ft3dOQmXn69FfvkLFlMF-29" vertex="1">
                    <mxGeometry width="30" height="30" as="geometry">
                        <mxRectangle width="30" height="30" as="alternateBounds"/>
                    </mxGeometry>
                </mxCell>
                <mxCell id="ft3dOQmXn69FfvkLFlMF-31" value="famazonId: int" style="shape=partialRectangle;connectable=0;fillColor=none;top=0;left=0;bottom=0;right=0;align=left;spacingLeft=6;fontStyle=5;overflow=hidden;" parent="ft3dOQmXn69FfvkLFlMF-29" vertex="1">
                    <mxGeometry x="30" width="150" height="30" as="geometry">
                        <mxRectangle width="150" height="30" as="alternateBounds"/>
                    </mxGeometry>
                </mxCell>
                <mxCell id="ft3dOQmXn69FfvkLFlMF-32" value="" style="shape=partialRectangle;collapsible=0;dropTarget=0;pointerEvents=0;fillColor=none;top=0;left=0;bottom=0;right=0;points=[[0,0.5],[1,0.5]];portConstraint=eastwest;" parent="ft3dOQmXn69FfvkLFlMF-28" vertex="1">
                    <mxGeometry y="60" width="180" height="30" as="geometry"/>
                </mxCell>
                <mxCell id="ft3dOQmXn69FfvkLFlMF-33" value="" style="shape=partialRectangle;connectable=0;fillColor=none;top=0;left=0;bottom=0;right=0;editable=1;overflow=hidden;" parent="ft3dOQmXn69FfvkLFlMF-32" vertex="1">
                    <mxGeometry width="30" height="30" as="geometry">
                        <mxRectangle width="30" height="30" as="alternateBounds"/>
                    </mxGeometry>
                </mxCell>
                <mxCell id="ft3dOQmXn69FfvkLFlMF-34" value="fk_cusomterId: int" style="shape=partialRectangle;connectable=0;fillColor=none;top=0;left=0;bottom=0;right=0;align=left;spacingLeft=6;overflow=hidden;" parent="ft3dOQmXn69FfvkLFlMF-32" vertex="1">
                    <mxGeometry x="30" width="150" height="30" as="geometry">
                        <mxRectangle width="150" height="30" as="alternateBounds"/>
                    </mxGeometry>
                </mxCell>
                <mxCell id="ft3dOQmXn69FfvkLFlMF-35" value="" style="shape=partialRectangle;collapsible=0;dropTarget=0;pointerEvents=0;fillColor=none;top=0;left=0;bottom=0;right=0;points=[[0,0.5],[1,0.5]];portConstraint=eastwest;" parent="ft3dOQmXn69FfvkLFlMF-28" vertex="1">
                    <mxGeometry y="90" width="180" height="30" as="geometry"/>
                </mxCell>
                <mxCell id="ft3dOQmXn69FfvkLFlMF-36" value="" style="shape=partialRectangle;connectable=0;fillColor=none;top=0;left=0;bottom=0;right=0;editable=1;overflow=hidden;" parent="ft3dOQmXn69FfvkLFlMF-35" vertex="1">
                    <mxGeometry width="30" height="30" as="geometry">
                        <mxRectangle width="30" height="30" as="alternateBounds"/>
                    </mxGeometry>
                </mxCell>
                <mxCell id="ft3dOQmXn69FfvkLFlMF-37" value="fk_productId: int" style="shape=partialRectangle;connectable=0;fillColor=none;top=0;left=0;bottom=0;right=0;align=left;spacingLeft=6;overflow=hidden;" parent="ft3dOQmXn69FfvkLFlMF-35" vertex="1">
                    <mxGeometry x="30" width="150" height="30" as="geometry">
                        <mxRectangle width="150" height="30" as="alternateBounds"/>
                    </mxGeometry>
                </mxCell>
                <mxCell id="ft3dOQmXn69FfvkLFlMF-38" value="products" style="shape=table;startSize=30;container=1;collapsible=1;childLayout=tableLayout;fixedRows=1;rowLines=0;fontStyle=1;align=center;resizeLast=1;" parent="ft3dOQmXn69FfvkLFlMF-1" vertex="1">
                    <mxGeometry x="760" y="190" width="180" height="130" as="geometry"/>
                </mxCell>
                <mxCell id="ft3dOQmXn69FfvkLFlMF-39" value="" style="shape=partialRectangle;collapsible=0;dropTarget=0;pointerEvents=0;fillColor=none;top=0;left=0;bottom=1;right=0;points=[[0,0.5],[1,0.5]];portConstraint=eastwest;" parent="ft3dOQmXn69FfvkLFlMF-38" vertex="1">
                    <mxGeometry y="30" width="180" height="30" as="geometry"/>
                </mxCell>
                <mxCell id="ft3dOQmXn69FfvkLFlMF-40" value="PK" style="shape=partialRectangle;connectable=0;fillColor=none;top=0;left=0;bottom=0;right=0;fontStyle=1;overflow=hidden;" parent="ft3dOQmXn69FfvkLFlMF-39" vertex="1">
                    <mxGeometry width="30" height="30" as="geometry">
                        <mxRectangle width="30" height="30" as="alternateBounds"/>
                    </mxGeometry>
                </mxCell>
                <mxCell id="ft3dOQmXn69FfvkLFlMF-41" value="productId: int" style="shape=partialRectangle;connectable=0;fillColor=none;top=0;left=0;bottom=0;right=0;align=left;spacingLeft=6;fontStyle=5;overflow=hidden;" parent="ft3dOQmXn69FfvkLFlMF-39" vertex="1">
                    <mxGeometry x="30" width="150" height="30" as="geometry">
                        <mxRectangle width="150" height="30" as="alternateBounds"/>
                    </mxGeometry>
                </mxCell>
                <mxCell id="ft3dOQmXn69FfvkLFlMF-42" value="" style="shape=partialRectangle;collapsible=0;dropTarget=0;pointerEvents=0;fillColor=none;top=0;left=0;bottom=0;right=0;points=[[0,0.5],[1,0.5]];portConstraint=eastwest;" parent="ft3dOQmXn69FfvkLFlMF-38" vertex="1">
                    <mxGeometry y="60" width="180" height="30" as="geometry"/>
                </mxCell>
                <mxCell id="ft3dOQmXn69FfvkLFlMF-43" value="" style="shape=partialRectangle;connectable=0;fillColor=none;top=0;left=0;bottom=0;right=0;editable=1;overflow=hidden;" parent="ft3dOQmXn69FfvkLFlMF-42" vertex="1">
                    <mxGeometry width="30" height="30" as="geometry">
                        <mxRectangle width="30" height="30" as="alternateBounds"/>
                    </mxGeometry>
                </mxCell>
                <mxCell id="ft3dOQmXn69FfvkLFlMF-44" value="productName: string" style="shape=partialRectangle;connectable=0;fillColor=none;top=0;left=0;bottom=0;right=0;align=left;spacingLeft=6;overflow=hidden;" parent="ft3dOQmXn69FfvkLFlMF-42" vertex="1">
                    <mxGeometry x="30" width="150" height="30" as="geometry">
                        <mxRectangle width="150" height="30" as="alternateBounds"/>
                    </mxGeometry>
                </mxCell>
                <mxCell id="ft3dOQmXn69FfvkLFlMF-45" value="" style="shape=partialRectangle;collapsible=0;dropTarget=0;pointerEvents=0;fillColor=none;top=0;left=0;bottom=0;right=0;points=[[0,0.5],[1,0.5]];portConstraint=eastwest;" parent="ft3dOQmXn69FfvkLFlMF-38" vertex="1">
                    <mxGeometry y="90" width="180" height="30" as="geometry"/>
                </mxCell>
                <mxCell id="ft3dOQmXn69FfvkLFlMF-46" value="" style="shape=partialRectangle;connectable=0;fillColor=none;top=0;left=0;bottom=0;right=0;editable=1;overflow=hidden;" parent="ft3dOQmXn69FfvkLFlMF-45" vertex="1">
                    <mxGeometry width="30" height="30" as="geometry">
                        <mxRectangle width="30" height="30" as="alternateBounds"/>
                    </mxGeometry>
                </mxCell>
                <mxCell id="ft3dOQmXn69FfvkLFlMF-47" value="brand: string" style="shape=partialRectangle;connectable=0;fillColor=none;top=0;left=0;bottom=0;right=0;align=left;spacingLeft=6;overflow=hidden;" parent="ft3dOQmXn69FfvkLFlMF-45" vertex="1">
                    <mxGeometry x="30" width="150" height="30" as="geometry">
                        <mxRectangle width="150" height="30" as="alternateBounds"/>
                    </mxGeometry>
                </mxCell>
                <mxCell id="ft3dOQmXn69FfvkLFlMF-48" value="" style="edgeStyle=orthogonalEdgeStyle;html=1;startArrow=ERmany;startFill=0;endArrow=ERmany;endFill=0;" parent="ft3dOQmXn69FfvkLFlMF-1" source="ft3dOQmXn69FfvkLFlMF-50" target="ft3dOQmXn69FfvkLFlMF-115" edge="1">
                    <mxGeometry relative="1" as="geometry"/>
                </mxCell>
                <mxCell id="ft3dOQmXn69FfvkLFlMF-49" value="company" style="shape=table;startSize=30;container=1;collapsible=1;childLayout=tableLayout;fixedRows=1;rowLines=0;fontStyle=1;align=center;resizeLast=1;" parent="ft3dOQmXn69FfvkLFlMF-1" vertex="1">
                    <mxGeometry x="750" y="510" width="180" height="190" as="geometry"/>
                </mxCell>
                <mxCell id="ft3dOQmXn69FfvkLFlMF-50" value="" style="shape=partialRectangle;collapsible=0;dropTarget=0;pointerEvents=0;fillColor=none;top=0;left=0;bottom=1;right=0;points=[[0,0.5],[1,0.5]];portConstraint=eastwest;" parent="ft3dOQmXn69FfvkLFlMF-49" vertex="1">
                    <mxGeometry y="30" width="180" height="30" as="geometry"/>
                </mxCell>
                <mxCell id="ft3dOQmXn69FfvkLFlMF-51" value="PK" style="shape=partialRectangle;connectable=0;fillColor=none;top=0;left=0;bottom=0;right=0;fontStyle=1;overflow=hidden;" parent="ft3dOQmXn69FfvkLFlMF-50" vertex="1">
                    <mxGeometry width="30" height="30" as="geometry">
                        <mxRectangle width="30" height="30" as="alternateBounds"/>
                    </mxGeometry>
                </mxCell>
                <mxCell id="ft3dOQmXn69FfvkLFlMF-52" value="companyId: int" style="shape=partialRectangle;connectable=0;fillColor=none;top=0;left=0;bottom=0;right=0;align=left;spacingLeft=6;fontStyle=5;overflow=hidden;" parent="ft3dOQmXn69FfvkLFlMF-50" vertex="1">
                    <mxGeometry x="30" width="150" height="30" as="geometry">
                        <mxRectangle width="150" height="30" as="alternateBounds"/>
                    </mxGeometry>
                </mxCell>
                <mxCell id="ft3dOQmXn69FfvkLFlMF-53" value="" style="shape=partialRectangle;collapsible=0;dropTarget=0;pointerEvents=0;fillColor=none;top=0;left=0;bottom=0;right=0;points=[[0,0.5],[1,0.5]];portConstraint=eastwest;" parent="ft3dOQmXn69FfvkLFlMF-49" vertex="1">
                    <mxGeometry y="60" width="180" height="30" as="geometry"/>
                </mxCell>
                <mxCell id="ft3dOQmXn69FfvkLFlMF-54" value="" style="shape=partialRectangle;connectable=0;fillColor=none;top=0;left=0;bottom=0;right=0;editable=1;overflow=hidden;" parent="ft3dOQmXn69FfvkLFlMF-53" vertex="1">
                    <mxGeometry width="30" height="30" as="geometry">
                        <mxRectangle width="30" height="30" as="alternateBounds"/>
                    </mxGeometry>
                </mxCell>
                <mxCell id="ft3dOQmXn69FfvkLFlMF-55" value="companyName: string" style="shape=partialRectangle;connectable=0;fillColor=none;top=0;left=0;bottom=0;right=0;align=left;spacingLeft=6;overflow=hidden;" parent="ft3dOQmXn69FfvkLFlMF-53" vertex="1">
                    <mxGeometry x="30" width="150" height="30" as="geometry">
                        <mxRectangle width="150" height="30" as="alternateBounds"/>
                    </mxGeometry>
                </mxCell>
                <mxCell id="ft3dOQmXn69FfvkLFlMF-56" value="" style="shape=partialRectangle;collapsible=0;dropTarget=0;pointerEvents=0;fillColor=none;top=0;left=0;bottom=0;right=0;points=[[0,0.5],[1,0.5]];portConstraint=eastwest;" parent="ft3dOQmXn69FfvkLFlMF-49" vertex="1">
                    <mxGeometry y="90" width="180" height="30" as="geometry"/>
                </mxCell>
                <mxCell id="ft3dOQmXn69FfvkLFlMF-57" value="" style="shape=partialRectangle;connectable=0;fillColor=none;top=0;left=0;bottom=0;right=0;editable=1;overflow=hidden;" parent="ft3dOQmXn69FfvkLFlMF-56" vertex="1">
                    <mxGeometry width="30" height="30" as="geometry">
                        <mxRectangle width="30" height="30" as="alternateBounds"/>
                    </mxGeometry>
                </mxCell>
                <mxCell id="ft3dOQmXn69FfvkLFlMF-58" value="companyAdress: string" style="shape=partialRectangle;connectable=0;fillColor=none;top=0;left=0;bottom=0;right=0;align=left;spacingLeft=6;overflow=hidden;" parent="ft3dOQmXn69FfvkLFlMF-56" vertex="1">
                    <mxGeometry x="30" width="150" height="30" as="geometry">
                        <mxRectangle width="150" height="30" as="alternateBounds"/>
                    </mxGeometry>
                </mxCell>
                <mxCell id="ft3dOQmXn69FfvkLFlMF-59" value="" style="shape=partialRectangle;collapsible=0;dropTarget=0;pointerEvents=0;fillColor=none;top=0;left=0;bottom=0;right=0;points=[[0,0.5],[1,0.5]];portConstraint=eastwest;" parent="ft3dOQmXn69FfvkLFlMF-49" vertex="1">
                    <mxGeometry y="120" width="180" height="30" as="geometry"/>
                </mxCell>
                <mxCell id="ft3dOQmXn69FfvkLFlMF-60" value="" style="shape=partialRectangle;connectable=0;fillColor=none;top=0;left=0;bottom=0;right=0;editable=1;overflow=hidden;" parent="ft3dOQmXn69FfvkLFlMF-59" vertex="1">
                    <mxGeometry width="30" height="30" as="geometry">
                        <mxRectangle width="30" height="30" as="alternateBounds"/>
                    </mxGeometry>
                </mxCell>
                <mxCell id="ft3dOQmXn69FfvkLFlMF-61" value="orderId: int" style="shape=partialRectangle;connectable=0;fillColor=none;top=0;left=0;bottom=0;right=0;align=left;spacingLeft=6;overflow=hidden;" parent="ft3dOQmXn69FfvkLFlMF-59" vertex="1">
                    <mxGeometry x="30" width="150" height="30" as="geometry">
                        <mxRectangle width="150" height="30" as="alternateBounds"/>
                    </mxGeometry>
                </mxCell>
                <mxCell id="ft3dOQmXn69FfvkLFlMF-62" value="" style="shape=partialRectangle;collapsible=0;dropTarget=0;pointerEvents=0;fillColor=none;top=0;left=0;bottom=0;right=0;points=[[0,0.5],[1,0.5]];portConstraint=eastwest;" parent="ft3dOQmXn69FfvkLFlMF-49" vertex="1">
                    <mxGeometry y="150" width="180" height="30" as="geometry"/>
                </mxCell>
                <mxCell id="ft3dOQmXn69FfvkLFlMF-63" value="" style="shape=partialRectangle;connectable=0;fillColor=none;top=0;left=0;bottom=0;right=0;editable=1;overflow=hidden;" parent="ft3dOQmXn69FfvkLFlMF-62" vertex="1">
                    <mxGeometry width="30" height="30" as="geometry">
                        <mxRectangle width="30" height="30" as="alternateBounds"/>
                    </mxGeometry>
                </mxCell>
                <mxCell id="ft3dOQmXn69FfvkLFlMF-64" value="fk_productId: int" style="shape=partialRectangle;connectable=0;fillColor=none;top=0;left=0;bottom=0;right=0;align=left;spacingLeft=6;overflow=hidden;" parent="ft3dOQmXn69FfvkLFlMF-62" vertex="1">
                    <mxGeometry x="30" width="150" height="30" as="geometry">
                        <mxRectangle width="150" height="30" as="alternateBounds"/>
                    </mxGeometry>
                </mxCell>
                <mxCell id="ft3dOQmXn69FfvkLFlMF-65" value="ShippingCompany" style="shape=table;startSize=30;container=1;collapsible=1;childLayout=tableLayout;fixedRows=1;rowLines=0;fontStyle=1;align=center;resizeLast=1;" parent="ft3dOQmXn69FfvkLFlMF-1" vertex="1">
                    <mxGeometry x="500" y="540" width="210" height="130" as="geometry"/>
                </mxCell>
                <mxCell id="ft3dOQmXn69FfvkLFlMF-66" value="" style="shape=partialRectangle;collapsible=0;dropTarget=0;pointerEvents=0;fillColor=none;top=0;left=0;bottom=1;right=0;points=[[0,0.5],[1,0.5]];portConstraint=eastwest;" parent="ft3dOQmXn69FfvkLFlMF-65" vertex="1">
                    <mxGeometry y="30" width="210" height="30" as="geometry"/>
                </mxCell>
                <mxCell id="ft3dOQmXn69FfvkLFlMF-67" value="PK" style="shape=partialRectangle;connectable=0;fillColor=none;top=0;left=0;bottom=0;right=0;fontStyle=1;overflow=hidden;" parent="ft3dOQmXn69FfvkLFlMF-66" vertex="1">
                    <mxGeometry width="30" height="30" as="geometry">
                        <mxRectangle width="30" height="30" as="alternateBounds"/>
                    </mxGeometry>
                </mxCell>
                <mxCell id="ft3dOQmXn69FfvkLFlMF-68" value="shippingCompanyId: int" style="shape=partialRectangle;connectable=0;fillColor=none;top=0;left=0;bottom=0;right=0;align=left;spacingLeft=6;fontStyle=5;overflow=hidden;" parent="ft3dOQmXn69FfvkLFlMF-66" vertex="1">
                    <mxGeometry x="30" width="180" height="30" as="geometry">
                        <mxRectangle width="180" height="30" as="alternateBounds"/>
                    </mxGeometry>
                </mxCell>
                <mxCell id="ft3dOQmXn69FfvkLFlMF-69" value="" style="shape=partialRectangle;collapsible=0;dropTarget=0;pointerEvents=0;fillColor=none;top=0;left=0;bottom=0;right=0;points=[[0,0.5],[1,0.5]];portConstraint=eastwest;" parent="ft3dOQmXn69FfvkLFlMF-65" vertex="1">
                    <mxGeometry y="60" width="210" height="30" as="geometry"/>
                </mxCell>
                <mxCell id="ft3dOQmXn69FfvkLFlMF-70" value="" style="shape=partialRectangle;connectable=0;fillColor=none;top=0;left=0;bottom=0;right=0;editable=1;overflow=hidden;" parent="ft3dOQmXn69FfvkLFlMF-69" vertex="1">
                    <mxGeometry width="30" height="30" as="geometry">
                        <mxRectangle width="30" height="30" as="alternateBounds"/>
                    </mxGeometry>
                </mxCell>
                <mxCell id="ft3dOQmXn69FfvkLFlMF-71" value="shippingCompanyName: string" style="shape=partialRectangle;connectable=0;fillColor=none;top=0;left=0;bottom=0;right=0;align=left;spacingLeft=6;overflow=hidden;" parent="ft3dOQmXn69FfvkLFlMF-69" vertex="1">
                    <mxGeometry x="30" width="180" height="30" as="geometry">
                        <mxRectangle width="180" height="30" as="alternateBounds"/>
                    </mxGeometry>
                </mxCell>
                <mxCell id="ft3dOQmXn69FfvkLFlMF-72" value="" style="shape=partialRectangle;collapsible=0;dropTarget=0;pointerEvents=0;fillColor=none;top=0;left=0;bottom=0;right=0;points=[[0,0.5],[1,0.5]];portConstraint=eastwest;" parent="ft3dOQmXn69FfvkLFlMF-65" vertex="1">
                    <mxGeometry y="90" width="210" height="30" as="geometry"/>
                </mxCell>
                <mxCell id="ft3dOQmXn69FfvkLFlMF-73" value="" style="shape=partialRectangle;connectable=0;fillColor=none;top=0;left=0;bottom=0;right=0;editable=1;overflow=hidden;" parent="ft3dOQmXn69FfvkLFlMF-72" vertex="1">
                    <mxGeometry width="30" height="30" as="geometry">
                        <mxRectangle width="30" height="30" as="alternateBounds"/>
                    </mxGeometry>
                </mxCell>
                <mxCell id="ft3dOQmXn69FfvkLFlMF-74" value="fk_companyId: int" style="shape=partialRectangle;connectable=0;fillColor=none;top=0;left=0;bottom=0;right=0;align=left;spacingLeft=6;overflow=hidden;" parent="ft3dOQmXn69FfvkLFlMF-72" vertex="1">
                    <mxGeometry x="30" width="180" height="30" as="geometry">
                        <mxRectangle width="180" height="30" as="alternateBounds"/>
                    </mxGeometry>
                </mxCell>
                <mxCell id="ft3dOQmXn69FfvkLFlMF-75" value="" style="edgeStyle=orthogonalEdgeStyle;html=1;startArrow=ERone;startFill=0;endArrow=ERmany;endFill=0;" parent="ft3dOQmXn69FfvkLFlMF-1" source="ft3dOQmXn69FfvkLFlMF-77" target="ft3dOQmXn69FfvkLFlMF-122" edge="1">
                    <mxGeometry relative="1" as="geometry">
                        <mxPoint x="210" y="585" as="sourcePoint"/>
                        <Array as="points">
                            <mxPoint x="210" y="585"/>
                            <mxPoint x="210" y="795"/>
                        </Array>
                    </mxGeometry>
                </mxCell>
                <mxCell id="ft3dOQmXn69FfvkLFlMF-76" value="shipping" style="shape=table;startSize=30;container=1;collapsible=1;childLayout=tableLayout;fixedRows=1;rowLines=0;fontStyle=1;align=center;resizeLast=1;" parent="ft3dOQmXn69FfvkLFlMF-1" vertex="1">
                    <mxGeometry x="234" y="540" width="196" height="130" as="geometry"/>
                </mxCell>
                <mxCell id="ft3dOQmXn69FfvkLFlMF-77" value="" style="shape=partialRectangle;collapsible=0;dropTarget=0;pointerEvents=0;fillColor=none;top=0;left=0;bottom=1;right=0;points=[[0,0.5],[1,0.5]];portConstraint=eastwest;" parent="ft3dOQmXn69FfvkLFlMF-76" vertex="1">
                    <mxGeometry y="30" width="196" height="30" as="geometry"/>
                </mxCell>
                <mxCell id="ft3dOQmXn69FfvkLFlMF-78" value="PK" style="shape=partialRectangle;connectable=0;fillColor=none;top=0;left=0;bottom=0;right=0;fontStyle=1;overflow=hidden;" parent="ft3dOQmXn69FfvkLFlMF-77" vertex="1">
                    <mxGeometry width="30" height="30" as="geometry">
                        <mxRectangle width="30" height="30" as="alternateBounds"/>
                    </mxGeometry>
                </mxCell>
                <mxCell id="ft3dOQmXn69FfvkLFlMF-79" value="shippingId: int" style="shape=partialRectangle;connectable=0;fillColor=none;top=0;left=0;bottom=0;right=0;align=left;spacingLeft=6;fontStyle=5;overflow=hidden;" parent="ft3dOQmXn69FfvkLFlMF-77" vertex="1">
                    <mxGeometry x="30" width="166" height="30" as="geometry">
                        <mxRectangle width="166" height="30" as="alternateBounds"/>
                    </mxGeometry>
                </mxCell>
                <mxCell id="ft3dOQmXn69FfvkLFlMF-80" value="" style="shape=partialRectangle;collapsible=0;dropTarget=0;pointerEvents=0;fillColor=none;top=0;left=0;bottom=0;right=0;points=[[0,0.5],[1,0.5]];portConstraint=eastwest;" parent="ft3dOQmXn69FfvkLFlMF-76" vertex="1">
                    <mxGeometry y="60" width="196" height="30" as="geometry"/>
                </mxCell>
                <mxCell id="ft3dOQmXn69FfvkLFlMF-81" value="" style="shape=partialRectangle;connectable=0;fillColor=none;top=0;left=0;bottom=0;right=0;editable=1;overflow=hidden;" parent="ft3dOQmXn69FfvkLFlMF-80" vertex="1">
                    <mxGeometry width="30" height="30" as="geometry">
                        <mxRectangle width="30" height="30" as="alternateBounds"/>
                    </mxGeometry>
                </mxCell>
                <mxCell id="ft3dOQmXn69FfvkLFlMF-82" value="deliveryTime: int" style="shape=partialRectangle;connectable=0;fillColor=none;top=0;left=0;bottom=0;right=0;align=left;spacingLeft=6;overflow=hidden;" parent="ft3dOQmXn69FfvkLFlMF-80" vertex="1">
                    <mxGeometry x="30" width="166" height="30" as="geometry">
                        <mxRectangle width="166" height="30" as="alternateBounds"/>
                    </mxGeometry>
                </mxCell>
                <mxCell id="ft3dOQmXn69FfvkLFlMF-83" value="" style="shape=partialRectangle;collapsible=0;dropTarget=0;pointerEvents=0;fillColor=none;top=0;left=0;bottom=0;right=0;points=[[0,0.5],[1,0.5]];portConstraint=eastwest;" parent="ft3dOQmXn69FfvkLFlMF-76" vertex="1">
                    <mxGeometry y="90" width="196" height="30" as="geometry"/>
                </mxCell>
                <mxCell id="ft3dOQmXn69FfvkLFlMF-84" value="" style="shape=partialRectangle;connectable=0;fillColor=none;top=0;left=0;bottom=0;right=0;editable=1;overflow=hidden;" parent="ft3dOQmXn69FfvkLFlMF-83" vertex="1">
                    <mxGeometry width="30" height="30" as="geometry">
                        <mxRectangle width="30" height="30" as="alternateBounds"/>
                    </mxGeometry>
                </mxCell>
                <mxCell id="ft3dOQmXn69FfvkLFlMF-85" value="fk_shippingCompanyId: int" style="shape=partialRectangle;connectable=0;fillColor=none;top=0;left=0;bottom=0;right=0;align=left;spacingLeft=6;overflow=hidden;" parent="ft3dOQmXn69FfvkLFlMF-83" vertex="1">
                    <mxGeometry x="30" width="166" height="30" as="geometry">
                        <mxRectangle width="166" height="30" as="alternateBounds"/>
                    </mxGeometry>
                </mxCell>
                <mxCell id="ft3dOQmXn69FfvkLFlMF-86" style="edgeStyle=orthogonalEdgeStyle;html=1;entryX=1;entryY=0.5;entryDx=0;entryDy=0;exitX=0;exitY=0.5;exitDx=0;exitDy=0;endArrow=ERone;endFill=0;startArrow=ERone;startFill=0;" parent="ft3dOQmXn69FfvkLFlMF-1" source="ft3dOQmXn69FfvkLFlMF-16" target="ft3dOQmXn69FfvkLFlMF-12" edge="1">
                    <mxGeometry relative="1" as="geometry"/>
                </mxCell>
                <mxCell id="ft3dOQmXn69FfvkLFlMF-87" style="edgeStyle=orthogonalEdgeStyle;html=1;entryX=0;entryY=0.5;entryDx=0;entryDy=0;startArrow=ERmany;startFill=0;endArrow=ERone;endFill=0;" parent="ft3dOQmXn69FfvkLFlMF-1" source="ft3dOQmXn69FfvkLFlMF-16" target="ft3dOQmXn69FfvkLFlMF-32" edge="1">
                    <mxGeometry relative="1" as="geometry"/>
                </mxCell>
                <mxCell id="ft3dOQmXn69FfvkLFlMF-88" style="edgeStyle=orthogonalEdgeStyle;html=1;entryX=1;entryY=0.5;entryDx=0;entryDy=0;startArrow=ERmany;startFill=0;endArrow=ERone;endFill=0;" parent="ft3dOQmXn69FfvkLFlMF-1" source="ft3dOQmXn69FfvkLFlMF-62" target="ft3dOQmXn69FfvkLFlMF-39" edge="1">
                    <mxGeometry relative="1" as="geometry"/>
                </mxCell>
                <mxCell id="ft3dOQmXn69FfvkLFlMF-89" style="edgeStyle=orthogonalEdgeStyle;html=1;entryX=1.002;entryY=0.658;entryDx=0;entryDy=0;startArrow=ERmany;startFill=0;endArrow=ERone;endFill=0;entryPerimeter=0;" parent="ft3dOQmXn69FfvkLFlMF-1" source="ft3dOQmXn69FfvkLFlMF-50" target="ft3dOQmXn69FfvkLFlMF-72" edge="1">
                    <mxGeometry relative="1" as="geometry"/>
                </mxCell>
                <mxCell id="ft3dOQmXn69FfvkLFlMF-90" style="edgeStyle=orthogonalEdgeStyle;html=1;entryX=0;entryY=0.5;entryDx=0;entryDy=0;startArrow=ERone;startFill=0;endArrow=ERone;endFill=0;" parent="ft3dOQmXn69FfvkLFlMF-1" source="ft3dOQmXn69FfvkLFlMF-83" target="ft3dOQmXn69FfvkLFlMF-66" edge="1">
                    <mxGeometry relative="1" as="geometry"/>
                </mxCell>
                <mxCell id="ft3dOQmXn69FfvkLFlMF-91" style="edgeStyle=orthogonalEdgeStyle;html=1;entryX=1;entryY=0.5;entryDx=0;entryDy=0;startArrow=ERone;startFill=0;endArrow=ERone;endFill=0;" parent="ft3dOQmXn69FfvkLFlMF-1" source="ft3dOQmXn69FfvkLFlMF-25" target="ft3dOQmXn69FfvkLFlMF-77" edge="1">
                    <mxGeometry relative="1" as="geometry"/>
                </mxCell>
                <mxCell id="ft3dOQmXn69FfvkLFlMF-92" style="edgeStyle=orthogonalEdgeStyle;html=1;entryX=0;entryY=0.5;entryDx=0;entryDy=0;startArrow=ERone;startFill=0;endArrow=ERmany;endFill=0;" parent="ft3dOQmXn69FfvkLFlMF-1" source="ft3dOQmXn69FfvkLFlMF-35" target="ft3dOQmXn69FfvkLFlMF-39" edge="1">
                    <mxGeometry relative="1" as="geometry"/>
                </mxCell>
                <mxCell id="ft3dOQmXn69FfvkLFlMF-93" value="PaymentMethod" style="shape=table;startSize=30;container=1;collapsible=1;childLayout=tableLayout;fixedRows=1;rowLines=0;fontStyle=1;align=center;resizeLast=1;" parent="ft3dOQmXn69FfvkLFlMF-1" vertex="1">
                    <mxGeometry x="-220" y="425" width="180" height="160" as="geometry"/>
                </mxCell>
                <mxCell id="ft3dOQmXn69FfvkLFlMF-94" value="" style="shape=partialRectangle;collapsible=0;dropTarget=0;pointerEvents=0;fillColor=none;top=0;left=0;bottom=1;right=0;points=[[0,0.5],[1,0.5]];portConstraint=eastwest;" parent="ft3dOQmXn69FfvkLFlMF-93" vertex="1">
                    <mxGeometry y="30" width="180" height="30" as="geometry"/>
                </mxCell>
                <mxCell id="ft3dOQmXn69FfvkLFlMF-95" value="PK" style="shape=partialRectangle;connectable=0;fillColor=none;top=0;left=0;bottom=0;right=0;fontStyle=1;overflow=hidden;" parent="ft3dOQmXn69FfvkLFlMF-94" vertex="1">
                    <mxGeometry width="30" height="30" as="geometry">
                        <mxRectangle width="30" height="30" as="alternateBounds"/>
                    </mxGeometry>
                </mxCell>
                <mxCell id="ft3dOQmXn69FfvkLFlMF-96" value="PaymentId: int" style="shape=partialRectangle;connectable=0;fillColor=none;top=0;left=0;bottom=0;right=0;align=left;spacingLeft=6;fontStyle=5;overflow=hidden;" parent="ft3dOQmXn69FfvkLFlMF-94" vertex="1">
                    <mxGeometry x="30" width="150" height="30" as="geometry">
                        <mxRectangle width="150" height="30" as="alternateBounds"/>
                    </mxGeometry>
                </mxCell>
                <mxCell id="ft3dOQmXn69FfvkLFlMF-97" value="" style="shape=partialRectangle;collapsible=0;dropTarget=0;pointerEvents=0;fillColor=none;top=0;left=0;bottom=0;right=0;points=[[0,0.5],[1,0.5]];portConstraint=eastwest;" parent="ft3dOQmXn69FfvkLFlMF-93" vertex="1">
                    <mxGeometry y="60" width="180" height="30" as="geometry"/>
                </mxCell>
                <mxCell id="ft3dOQmXn69FfvkLFlMF-98" value="" style="shape=partialRectangle;connectable=0;fillColor=none;top=0;left=0;bottom=0;right=0;editable=1;overflow=hidden;" parent="ft3dOQmXn69FfvkLFlMF-97" vertex="1">
                    <mxGeometry width="30" height="30" as="geometry">
                        <mxRectangle width="30" height="30" as="alternateBounds"/>
                    </mxGeometry>
                </mxCell>
                <mxCell id="ft3dOQmXn69FfvkLFlMF-99" value="fk_accountId int" style="shape=partialRectangle;connectable=0;fillColor=none;top=0;left=0;bottom=0;right=0;align=left;spacingLeft=6;overflow=hidden;" parent="ft3dOQmXn69FfvkLFlMF-97" vertex="1">
                    <mxGeometry x="30" width="150" height="30" as="geometry">
                        <mxRectangle width="150" height="30" as="alternateBounds"/>
                    </mxGeometry>
                </mxCell>
                <mxCell id="ft3dOQmXn69FfvkLFlMF-100" value="" style="shape=partialRectangle;collapsible=0;dropTarget=0;pointerEvents=0;fillColor=none;top=0;left=0;bottom=0;right=0;points=[[0,0.5],[1,0.5]];portConstraint=eastwest;" parent="ft3dOQmXn69FfvkLFlMF-93" vertex="1">
                    <mxGeometry y="90" width="180" height="30" as="geometry"/>
                </mxCell>
                <mxCell id="ft3dOQmXn69FfvkLFlMF-101" value="" style="shape=partialRectangle;connectable=0;fillColor=none;top=0;left=0;bottom=0;right=0;editable=1;overflow=hidden;" parent="ft3dOQmXn69FfvkLFlMF-100" vertex="1">
                    <mxGeometry width="30" height="30" as="geometry">
                        <mxRectangle width="30" height="30" as="alternateBounds"/>
                    </mxGeometry>
                </mxCell>
                <mxCell id="ft3dOQmXn69FfvkLFlMF-102" value="paymentMethod: string" style="shape=partialRectangle;connectable=0;fillColor=none;top=0;left=0;bottom=0;right=0;align=left;spacingLeft=6;overflow=hidden;" parent="ft3dOQmXn69FfvkLFlMF-100" vertex="1">
                    <mxGeometry x="30" width="150" height="30" as="geometry">
                        <mxRectangle width="150" height="30" as="alternateBounds"/>
                    </mxGeometry>
                </mxCell>
                <mxCell id="ft3dOQmXn69FfvkLFlMF-103" value="" style="shape=partialRectangle;collapsible=0;dropTarget=0;pointerEvents=0;fillColor=none;top=0;left=0;bottom=0;right=0;points=[[0,0.5],[1,0.5]];portConstraint=eastwest;" parent="ft3dOQmXn69FfvkLFlMF-93" vertex="1">
                    <mxGeometry y="120" width="180" height="30" as="geometry"/>
                </mxCell>
                <mxCell id="ft3dOQmXn69FfvkLFlMF-104" value="" style="shape=partialRectangle;connectable=0;fillColor=none;top=0;left=0;bottom=0;right=0;editable=1;overflow=hidden;" parent="ft3dOQmXn69FfvkLFlMF-103" vertex="1">
                    <mxGeometry width="30" height="30" as="geometry">
                        <mxRectangle width="30" height="30" as="alternateBounds"/>
                    </mxGeometry>
                </mxCell>
                <mxCell id="ft3dOQmXn69FfvkLFlMF-105" value="verified: string" style="shape=partialRectangle;connectable=0;fillColor=none;top=0;left=0;bottom=0;right=0;align=left;spacingLeft=6;overflow=hidden;" parent="ft3dOQmXn69FfvkLFlMF-103" vertex="1">
                    <mxGeometry x="30" width="150" height="30" as="geometry">
                        <mxRectangle width="150" height="30" as="alternateBounds"/>
                    </mxGeometry>
                </mxCell>
                <mxCell id="ft3dOQmXn69FfvkLFlMF-106" style="edgeStyle=orthogonalEdgeStyle;html=1;exitX=0;exitY=0.5;exitDx=0;exitDy=0;startArrow=ERmany;startFill=0;endArrow=ERmany;endFill=0;" parent="ft3dOQmXn69FfvkLFlMF-1" source="ft3dOQmXn69FfvkLFlMF-3" target="ft3dOQmXn69FfvkLFlMF-97" edge="1">
                    <mxGeometry relative="1" as="geometry"/>
                </mxCell>
                <mxCell id="ft3dOQmXn69FfvkLFlMF-107" value="" style="edgeStyle=orthogonalEdgeStyle;html=1;startArrow=ERone;startFill=0;endArrow=ERone;endFill=0;" parent="ft3dOQmXn69FfvkLFlMF-1" source="ft3dOQmXn69FfvkLFlMF-108" target="ft3dOQmXn69FfvkLFlMF-131" edge="1">
                    <mxGeometry relative="1" as="geometry"/>
                </mxCell>
                <mxCell id="ft3dOQmXn69FfvkLFlMF-108" value="Order" style="shape=table;startSize=30;container=1;collapsible=1;childLayout=tableLayout;fixedRows=1;rowLines=0;fontStyle=1;align=center;resizeLast=1;" parent="ft3dOQmXn69FfvkLFlMF-1" vertex="1">
                    <mxGeometry x="1020" y="690" width="180" height="130" as="geometry"/>
                </mxCell>
                <mxCell id="ft3dOQmXn69FfvkLFlMF-109" value="" style="shape=partialRectangle;collapsible=0;dropTarget=0;pointerEvents=0;fillColor=none;top=0;left=0;bottom=1;right=0;points=[[0,0.5],[1,0.5]];portConstraint=eastwest;" parent="ft3dOQmXn69FfvkLFlMF-108" vertex="1">
                    <mxGeometry y="30" width="180" height="30" as="geometry"/>
                </mxCell>
                <mxCell id="ft3dOQmXn69FfvkLFlMF-110" value="PK" style="shape=partialRectangle;connectable=0;fillColor=none;top=0;left=0;bottom=0;right=0;fontStyle=1;overflow=hidden;" parent="ft3dOQmXn69FfvkLFlMF-109" vertex="1">
                    <mxGeometry width="30" height="30" as="geometry">
                        <mxRectangle width="30" height="30" as="alternateBounds"/>
                    </mxGeometry>
                </mxCell>
                <mxCell id="ft3dOQmXn69FfvkLFlMF-111" value="OrderId: int" style="shape=partialRectangle;connectable=0;fillColor=none;top=0;left=0;bottom=0;right=0;align=left;spacingLeft=6;fontStyle=5;overflow=hidden;" parent="ft3dOQmXn69FfvkLFlMF-109" vertex="1">
                    <mxGeometry x="30" width="150" height="30" as="geometry">
                        <mxRectangle width="150" height="30" as="alternateBounds"/>
                    </mxGeometry>
                </mxCell>
                <mxCell id="ft3dOQmXn69FfvkLFlMF-112" value="" style="shape=partialRectangle;collapsible=0;dropTarget=0;pointerEvents=0;fillColor=none;top=0;left=0;bottom=0;right=0;points=[[0,0.5],[1,0.5]];portConstraint=eastwest;" parent="ft3dOQmXn69FfvkLFlMF-108" vertex="1">
                    <mxGeometry y="60" width="180" height="30" as="geometry"/>
                </mxCell>
                <mxCell id="ft3dOQmXn69FfvkLFlMF-113" value="" style="shape=partialRectangle;connectable=0;fillColor=none;top=0;left=0;bottom=0;right=0;editable=1;overflow=hidden;" parent="ft3dOQmXn69FfvkLFlMF-112" vertex="1">
                    <mxGeometry width="30" height="30" as="geometry">
                        <mxRectangle width="30" height="30" as="alternateBounds"/>
                    </mxGeometry>
                </mxCell>
                <mxCell id="ft3dOQmXn69FfvkLFlMF-114" value="orderDate: date" style="shape=partialRectangle;connectable=0;fillColor=none;top=0;left=0;bottom=0;right=0;align=left;spacingLeft=6;overflow=hidden;" parent="ft3dOQmXn69FfvkLFlMF-112" vertex="1">
                    <mxGeometry x="30" width="150" height="30" as="geometry">
                        <mxRectangle width="150" height="30" as="alternateBounds"/>
                    </mxGeometry>
                </mxCell>
                <mxCell id="ft3dOQmXn69FfvkLFlMF-115" value="" style="shape=partialRectangle;collapsible=0;dropTarget=0;pointerEvents=0;fillColor=none;top=0;left=0;bottom=0;right=0;points=[[0,0.5],[1,0.5]];portConstraint=eastwest;" parent="ft3dOQmXn69FfvkLFlMF-108" vertex="1">
                    <mxGeometry y="90" width="180" height="30" as="geometry"/>
                </mxCell>
                <mxCell id="ft3dOQmXn69FfvkLFlMF-116" value="" style="shape=partialRectangle;connectable=0;fillColor=none;top=0;left=0;bottom=0;right=0;editable=1;overflow=hidden;" parent="ft3dOQmXn69FfvkLFlMF-115" vertex="1">
                    <mxGeometry width="30" height="30" as="geometry">
                        <mxRectangle width="30" height="30" as="alternateBounds"/>
                    </mxGeometry>
                </mxCell>
                <mxCell id="ft3dOQmXn69FfvkLFlMF-117" value="fk_companyId int" style="shape=partialRectangle;connectable=0;fillColor=none;top=0;left=0;bottom=0;right=0;align=left;spacingLeft=6;overflow=hidden;" parent="ft3dOQmXn69FfvkLFlMF-115" vertex="1">
                    <mxGeometry x="30" width="150" height="30" as="geometry">
                        <mxRectangle width="150" height="30" as="alternateBounds"/>
                    </mxGeometry>
                </mxCell>
                <mxCell id="ft3dOQmXn69FfvkLFlMF-118" value="shippingDetails" style="shape=table;startSize=30;container=1;collapsible=1;childLayout=tableLayout;fixedRows=1;rowLines=0;fontStyle=1;align=center;resizeLast=1;" parent="ft3dOQmXn69FfvkLFlMF-1" vertex="1">
                    <mxGeometry x="-26" y="720" width="180" height="160" as="geometry"/>
                </mxCell>
                <mxCell id="ft3dOQmXn69FfvkLFlMF-119" value="" style="shape=partialRectangle;collapsible=0;dropTarget=0;pointerEvents=0;fillColor=none;top=0;left=0;bottom=1;right=0;points=[[0,0.5],[1,0.5]];portConstraint=eastwest;" parent="ft3dOQmXn69FfvkLFlMF-118" vertex="1">
                    <mxGeometry y="30" width="180" height="30" as="geometry"/>
                </mxCell>
                <mxCell id="ft3dOQmXn69FfvkLFlMF-120" value="PK" style="shape=partialRectangle;connectable=0;fillColor=none;top=0;left=0;bottom=0;right=0;fontStyle=1;overflow=hidden;" parent="ft3dOQmXn69FfvkLFlMF-119" vertex="1">
                    <mxGeometry width="30" height="30" as="geometry">
                        <mxRectangle width="30" height="30" as="alternateBounds"/>
                    </mxGeometry>
                </mxCell>
                <mxCell id="ft3dOQmXn69FfvkLFlMF-121" value="shippingDetailsId" style="shape=partialRectangle;connectable=0;fillColor=none;top=0;left=0;bottom=0;right=0;align=left;spacingLeft=6;fontStyle=5;overflow=hidden;" parent="ft3dOQmXn69FfvkLFlMF-119" vertex="1">
                    <mxGeometry x="30" width="150" height="30" as="geometry">
                        <mxRectangle width="150" height="30" as="alternateBounds"/>
                    </mxGeometry>
                </mxCell>
                <mxCell id="ft3dOQmXn69FfvkLFlMF-122" value="" style="shape=partialRectangle;collapsible=0;dropTarget=0;pointerEvents=0;fillColor=none;top=0;left=0;bottom=0;right=0;points=[[0,0.5],[1,0.5]];portConstraint=eastwest;" parent="ft3dOQmXn69FfvkLFlMF-118" vertex="1">
                    <mxGeometry y="60" width="180" height="30" as="geometry"/>
                </mxCell>
                <mxCell id="ft3dOQmXn69FfvkLFlMF-123" value="" style="shape=partialRectangle;connectable=0;fillColor=none;top=0;left=0;bottom=0;right=0;editable=1;overflow=hidden;" parent="ft3dOQmXn69FfvkLFlMF-122" vertex="1">
                    <mxGeometry width="30" height="30" as="geometry">
                        <mxRectangle width="30" height="30" as="alternateBounds"/>
                    </mxGeometry>
                </mxCell>
                <mxCell id="ft3dOQmXn69FfvkLFlMF-124" value="fk_shippingId: int" style="shape=partialRectangle;connectable=0;fillColor=none;top=0;left=0;bottom=0;right=0;align=left;spacingLeft=6;overflow=hidden;" parent="ft3dOQmXn69FfvkLFlMF-122" vertex="1">
                    <mxGeometry x="30" width="150" height="30" as="geometry">
                        <mxRectangle width="150" height="30" as="alternateBounds"/>
                    </mxGeometry>
                </mxCell>
                <mxCell id="ft3dOQmXn69FfvkLFlMF-125" value="" style="shape=partialRectangle;collapsible=0;dropTarget=0;pointerEvents=0;fillColor=none;top=0;left=0;bottom=0;right=0;points=[[0,0.5],[1,0.5]];portConstraint=eastwest;" parent="ft3dOQmXn69FfvkLFlMF-118" vertex="1">
                    <mxGeometry y="90" width="180" height="30" as="geometry"/>
                </mxCell>
                <mxCell id="ft3dOQmXn69FfvkLFlMF-126" value="" style="shape=partialRectangle;connectable=0;fillColor=none;top=0;left=0;bottom=0;right=0;editable=1;overflow=hidden;" parent="ft3dOQmXn69FfvkLFlMF-125" vertex="1">
                    <mxGeometry width="30" height="30" as="geometry">
                        <mxRectangle width="30" height="30" as="alternateBounds"/>
                    </mxGeometry>
                </mxCell>
                <mxCell id="ft3dOQmXn69FfvkLFlMF-127" value="shippingDate: date" style="shape=partialRectangle;connectable=0;fillColor=none;top=0;left=0;bottom=0;right=0;align=left;spacingLeft=6;overflow=hidden;" parent="ft3dOQmXn69FfvkLFlMF-125" vertex="1">
                    <mxGeometry x="30" width="150" height="30" as="geometry">
                        <mxRectangle width="150" height="30" as="alternateBounds"/>
                    </mxGeometry>
                </mxCell>
                <mxCell id="ft3dOQmXn69FfvkLFlMF-128" value="" style="shape=partialRectangle;collapsible=0;dropTarget=0;pointerEvents=0;fillColor=none;top=0;left=0;bottom=0;right=0;points=[[0,0.5],[1,0.5]];portConstraint=eastwest;" parent="ft3dOQmXn69FfvkLFlMF-118" vertex="1">
                    <mxGeometry y="120" width="180" height="30" as="geometry"/>
                </mxCell>
                <mxCell id="ft3dOQmXn69FfvkLFlMF-129" value="" style="shape=partialRectangle;connectable=0;fillColor=none;top=0;left=0;bottom=0;right=0;editable=1;overflow=hidden;" parent="ft3dOQmXn69FfvkLFlMF-128" vertex="1">
                    <mxGeometry width="30" height="30" as="geometry">
                        <mxRectangle width="30" height="30" as="alternateBounds"/>
                    </mxGeometry>
                </mxCell>
                <mxCell id="ft3dOQmXn69FfvkLFlMF-130" value="shippingMethod: string" style="shape=partialRectangle;connectable=0;fillColor=none;top=0;left=0;bottom=0;right=0;align=left;spacingLeft=6;overflow=hidden;" parent="ft3dOQmXn69FfvkLFlMF-128" vertex="1">
                    <mxGeometry x="30" width="150" height="30" as="geometry">
                        <mxRectangle width="150" height="30" as="alternateBounds"/>
                    </mxGeometry>
                </mxCell>
                <mxCell id="ft3dOQmXn69FfvkLFlMF-131" value="Invoice" style="shape=table;startSize=30;container=1;collapsible=1;childLayout=tableLayout;fixedRows=1;rowLines=0;fontStyle=1;align=center;resizeLast=1;" parent="ft3dOQmXn69FfvkLFlMF-1" vertex="1">
                    <mxGeometry x="1020" y="470" width="180" height="130" as="geometry"/>
                </mxCell>
                <mxCell id="ft3dOQmXn69FfvkLFlMF-132" value="" style="shape=partialRectangle;collapsible=0;dropTarget=0;pointerEvents=0;fillColor=none;top=0;left=0;bottom=1;right=0;points=[[0,0.5],[1,0.5]];portConstraint=eastwest;" parent="ft3dOQmXn69FfvkLFlMF-131" vertex="1">
                    <mxGeometry y="30" width="180" height="30" as="geometry"/>
                </mxCell>
                <mxCell id="ft3dOQmXn69FfvkLFlMF-133" value="PK" style="shape=partialRectangle;connectable=0;fillColor=none;top=0;left=0;bottom=0;right=0;fontStyle=1;overflow=hidden;" parent="ft3dOQmXn69FfvkLFlMF-132" vertex="1">
                    <mxGeometry width="30" height="30" as="geometry">
                        <mxRectangle width="30" height="30" as="alternateBounds"/>
                    </mxGeometry>
                </mxCell>
                <mxCell id="ft3dOQmXn69FfvkLFlMF-134" value="InvoiceId" style="shape=partialRectangle;connectable=0;fillColor=none;top=0;left=0;bottom=0;right=0;align=left;spacingLeft=6;fontStyle=5;overflow=hidden;" parent="ft3dOQmXn69FfvkLFlMF-132" vertex="1">
                    <mxGeometry x="30" width="150" height="30" as="geometry">
                        <mxRectangle width="150" height="30" as="alternateBounds"/>
                    </mxGeometry>
                </mxCell>
                <mxCell id="ft3dOQmXn69FfvkLFlMF-135" value="" style="shape=partialRectangle;collapsible=0;dropTarget=0;pointerEvents=0;fillColor=none;top=0;left=0;bottom=0;right=0;points=[[0,0.5],[1,0.5]];portConstraint=eastwest;" parent="ft3dOQmXn69FfvkLFlMF-131" vertex="1">
                    <mxGeometry y="60" width="180" height="30" as="geometry"/>
                </mxCell>
                <mxCell id="ft3dOQmXn69FfvkLFlMF-136" value="" style="shape=partialRectangle;connectable=0;fillColor=none;top=0;left=0;bottom=0;right=0;editable=1;overflow=hidden;" parent="ft3dOQmXn69FfvkLFlMF-135" vertex="1">
                    <mxGeometry width="30" height="30" as="geometry">
                        <mxRectangle width="30" height="30" as="alternateBounds"/>
                    </mxGeometry>
                </mxCell>
                <mxCell id="ft3dOQmXn69FfvkLFlMF-137" value="fk_orderId: int" style="shape=partialRectangle;connectable=0;fillColor=none;top=0;left=0;bottom=0;right=0;align=left;spacingLeft=6;overflow=hidden;" parent="ft3dOQmXn69FfvkLFlMF-135" vertex="1">
                    <mxGeometry x="30" width="150" height="30" as="geometry">
                        <mxRectangle width="150" height="30" as="alternateBounds"/>
                    </mxGeometry>
                </mxCell>
                <mxCell id="ft3dOQmXn69FfvkLFlMF-138" value="" style="shape=partialRectangle;collapsible=0;dropTarget=0;pointerEvents=0;fillColor=none;top=0;left=0;bottom=0;right=0;points=[[0,0.5],[1,0.5]];portConstraint=eastwest;" parent="ft3dOQmXn69FfvkLFlMF-131" vertex="1">
                    <mxGeometry y="90" width="180" height="30" as="geometry"/>
                </mxCell>
                <mxCell id="ft3dOQmXn69FfvkLFlMF-139" value="" style="shape=partialRectangle;connectable=0;fillColor=none;top=0;left=0;bottom=0;right=0;editable=1;overflow=hidden;" parent="ft3dOQmXn69FfvkLFlMF-138" vertex="1">
                    <mxGeometry width="30" height="30" as="geometry">
                        <mxRectangle width="30" height="30" as="alternateBounds"/>
                    </mxGeometry>
                </mxCell>
                <mxCell id="ft3dOQmXn69FfvkLFlMF-140" value="price: int" style="shape=partialRectangle;connectable=0;fillColor=none;top=0;left=0;bottom=0;right=0;align=left;spacingLeft=6;overflow=hidden;" parent="ft3dOQmXn69FfvkLFlMF-138" vertex="1">
                    <mxGeometry x="30" width="150" height="30" as="geometry">
                        <mxRectangle width="150" height="30" as="alternateBounds"/>
                    </mxGeometry>
                </mxCell>
            </root>
        </mxGraphModel>
    </diagram>
</mxfile>